G04*
G04 #@! TF.GenerationSoftware,Altium Limited,CircuitMaker,2.2.1 (2.2.1.6)*
G04*
G04 Layer_Color=15132400*
%FSLAX25Y25*%
%MOIN*%
G70*
G04*
G04 #@! TF.SameCoordinates,AAD4B4F7-D1E0-42C2-89CD-4A0885FF1A0E*
G04*
G04*
G04 #@! TF.FilePolarity,Positive*
G04*
G01*
G75*
%ADD10C,0.00591*%
%ADD11C,0.00787*%
%ADD12C,0.01000*%
D10*
X338937Y200000D02*
G03*
X338937Y200000I-3937J0D01*
G01*
X383937Y240000D02*
G03*
X383937Y240000I-3937J0D01*
G01*
X328937Y270000D02*
G03*
X328937Y270000I-3937J0D01*
G01*
X338937Y105000D02*
G03*
X338937Y105000I-3937J0D01*
G01*
X303937Y140000D02*
G03*
X303937Y140000I-3937J0D01*
G01*
X268937Y105000D02*
G03*
X268937Y105000I-3937J0D01*
G01*
X303937Y70000D02*
G03*
X303937Y70000I-3937J0D01*
G01*
X133937Y140000D02*
G03*
X133937Y140000I-3937J0D01*
G01*
Y70000D02*
G03*
X133937Y70000I-3937J0D01*
G01*
X168937Y105000D02*
G03*
X168937Y105000I-3937J0D01*
G01*
X98937D02*
G03*
X98937Y105000I-3937J0D01*
G01*
X148937Y225000D02*
G03*
X148937Y225000I-3937J0D01*
G01*
X428937Y200000D02*
G03*
X428937Y200000I-3937J0D01*
G01*
X383937Y155000D02*
G03*
X383937Y155000I-3937J0D01*
G01*
X288937Y225000D02*
G03*
X288937Y225000I-3937J0D01*
G01*
X218937Y250000D02*
G03*
X218937Y250000I-3937J0D01*
G01*
D11*
X331063Y210236D02*
X338937D01*
X345236Y194095D02*
Y205906D01*
X324764Y194095D02*
Y205906D01*
X331063Y189764D02*
X338543D01*
X390236Y236063D02*
Y243937D01*
X374095Y229764D02*
X385906D01*
X374095Y250236D02*
X385906D01*
X369764Y236457D02*
Y243937D01*
X335236Y266063D02*
Y273937D01*
X319094Y259764D02*
X330906D01*
X319094Y280236D02*
X330906D01*
X314764Y266457D02*
Y273937D01*
X331063Y115236D02*
X338937D01*
X345236Y99094D02*
Y110906D01*
X324764Y99094D02*
Y110906D01*
X331063Y94764D02*
X338543D01*
X310236Y136063D02*
Y143937D01*
X294094Y129764D02*
X305906D01*
X294094Y150236D02*
X305906D01*
X289764Y136457D02*
Y143937D01*
X261063Y94764D02*
X268937D01*
X254764Y99094D02*
Y110906D01*
X275236Y99094D02*
Y110906D01*
X261457Y115236D02*
X268937D01*
X310236Y66063D02*
Y73937D01*
X294094Y59764D02*
X305906D01*
X294094Y80236D02*
X305906D01*
X289764Y66457D02*
Y73937D01*
X119764Y136063D02*
Y143937D01*
X124094Y150236D02*
X135906D01*
X124094Y129764D02*
X135906D01*
X140236Y136063D02*
Y143543D01*
X119764Y66063D02*
Y73937D01*
X124094Y80236D02*
X135906D01*
X124094Y59764D02*
X135906D01*
X140236Y66063D02*
Y73543D01*
X161063Y94764D02*
X168937D01*
X154764Y99094D02*
Y110906D01*
X175236Y99094D02*
Y110906D01*
X161457Y115236D02*
X168937D01*
X91063Y94764D02*
X98937D01*
X84764Y99094D02*
Y110906D01*
X105236Y99094D02*
Y110906D01*
X91457Y115236D02*
X98937D01*
X155236Y221063D02*
Y228937D01*
X139094Y214764D02*
X150906D01*
X139094Y235236D02*
X150906D01*
X134764Y221457D02*
Y228937D01*
X421063Y210236D02*
X428937D01*
X435236Y194095D02*
Y205906D01*
X414764Y194095D02*
Y205906D01*
X421063Y189764D02*
X428543D01*
X390236Y151063D02*
Y158937D01*
X374095Y144764D02*
X385906D01*
X374095Y165236D02*
X385906D01*
X369764Y151457D02*
Y158937D01*
X295236Y221063D02*
Y228937D01*
X279095Y214764D02*
X290905D01*
X279095Y235236D02*
X290905D01*
X274764Y221457D02*
Y228937D01*
X225236Y246063D02*
Y253937D01*
X209095Y239764D02*
X220905D01*
X209095Y260236D02*
X220905D01*
X204764Y246457D02*
Y253937D01*
D12*
X289337Y159166D02*
X288670Y159833D01*
X287337D01*
X286671Y159166D01*
Y158500D01*
X287337Y157833D01*
X288670D01*
X289337Y157167D01*
Y156500D01*
X288670Y155834D01*
X287337D01*
X286671Y156500D01*
X290670Y159833D02*
Y155834D01*
X292003Y157167D01*
X293336Y155834D01*
Y159833D01*
X294668Y155167D02*
X297334D01*
X301333Y159166D02*
X300666Y159833D01*
X299334D01*
X298667Y159166D01*
Y156500D01*
X299334Y155834D01*
X300666D01*
X301333Y156500D01*
X302666Y155167D02*
X305332D01*
X306664Y159833D02*
Y156500D01*
X307331Y155834D01*
X308664D01*
X309330Y156500D01*
Y159833D01*
X310663Y155834D02*
Y159833D01*
X312663D01*
X313329Y159166D01*
Y157833D01*
X312663Y157167D01*
X310663D01*
X52334Y148833D02*
X51668Y149499D01*
X50335D01*
X49668Y148833D01*
Y148167D01*
X50335Y147500D01*
X51668D01*
X52334Y146834D01*
Y146167D01*
X51668Y145501D01*
X50335D01*
X49668Y146167D01*
X53667Y149499D02*
Y145501D01*
X55000Y146834D01*
X56333Y145501D01*
Y149499D01*
X57666Y148833D02*
X58332Y149499D01*
X59665D01*
X60332Y148833D01*
Y148167D01*
X59665Y147500D01*
X58999D01*
X59665D01*
X60332Y146834D01*
Y146167D01*
X59665Y145501D01*
X58332D01*
X57666Y146167D01*
X306359Y204422D02*
X305692Y205088D01*
X304359D01*
X303693Y204422D01*
Y203756D01*
X304359Y203089D01*
X305692D01*
X306359Y202423D01*
Y201756D01*
X305692Y201090D01*
X304359D01*
X303693Y201756D01*
X307691Y205088D02*
Y201090D01*
X309024Y202423D01*
X310357Y201090D01*
Y205088D01*
X311690Y200423D02*
X314356D01*
X315689Y205088D02*
Y204422D01*
X317022Y203089D01*
X318355Y204422D01*
Y205088D01*
X317022Y203089D02*
Y201090D01*
X400335Y244166D02*
X399668Y244833D01*
X398336D01*
X397669Y244166D01*
Y243500D01*
X398336Y242833D01*
X399668D01*
X400335Y242167D01*
Y241500D01*
X399668Y240834D01*
X398336D01*
X397669Y241500D01*
X401668Y244833D02*
Y240834D01*
X403001Y242167D01*
X404334Y240834D01*
Y244833D01*
X405666Y240167D02*
X408332D01*
X409665Y244833D02*
X412331Y240834D01*
Y244833D02*
X409665Y240834D01*
X200866Y270832D02*
X200199Y271499D01*
X198866D01*
X198200Y270832D01*
Y270166D01*
X198866Y269499D01*
X200199D01*
X200866Y268833D01*
Y268166D01*
X200199Y267500D01*
X198866D01*
X198200Y268166D01*
X202199Y271499D02*
Y267500D01*
X203532Y268833D01*
X204865Y267500D01*
Y271499D01*
X206197Y266834D02*
X208863D01*
X210196Y271499D02*
Y267500D01*
Y269499D01*
X212862D01*
Y271499D01*
Y267500D01*
X216194Y271499D02*
X214861D01*
X214195Y270832D01*
Y268166D01*
X214861Y267500D01*
X216194D01*
X216861Y268166D01*
Y270832D01*
X216194Y271499D01*
X218194Y267500D02*
Y271499D01*
X219527Y270166D01*
X220859Y271499D01*
Y267500D01*
X224858Y271499D02*
X222192D01*
Y267500D01*
X224858D01*
X222192Y269499D02*
X223525D01*
X119337Y159166D02*
X118670Y159833D01*
X117337D01*
X116671Y159166D01*
Y158500D01*
X117337Y157833D01*
X118670D01*
X119337Y157167D01*
Y156500D01*
X118670Y155834D01*
X117337D01*
X116671Y156500D01*
X120670Y159833D02*
Y155834D01*
X122003Y157167D01*
X123336Y155834D01*
Y159833D01*
X124668Y155167D02*
X127334D01*
X128667Y159833D02*
Y155834D01*
X130666D01*
X131333Y156500D01*
Y159166D01*
X130666Y159833D01*
X128667D01*
X132666Y155167D02*
X135332D01*
X136664Y159833D02*
Y156500D01*
X137331Y155834D01*
X138664D01*
X139330Y156500D01*
Y159833D01*
X140663Y155834D02*
Y159833D01*
X142663D01*
X143329Y159166D01*
Y157833D01*
X142663Y157167D01*
X140663D01*
X78672Y129166D02*
X78005Y129833D01*
X76673D01*
X76006Y129166D01*
Y128500D01*
X76673Y127833D01*
X78005D01*
X78672Y127167D01*
Y126500D01*
X78005Y125834D01*
X76673D01*
X76006Y126500D01*
X80005Y129833D02*
Y125834D01*
X81338Y127167D01*
X82671Y125834D01*
Y129833D01*
X84004Y125167D02*
X86669D01*
X88002Y129833D02*
Y125834D01*
X90002D01*
X90668Y126500D01*
Y129166D01*
X90002Y129833D01*
X88002D01*
X92001Y125167D02*
X94667D01*
X96000Y125834D02*
Y129833D01*
X97999D01*
X98665Y129166D01*
Y127833D01*
X97999Y127167D01*
X96000D01*
X97333D02*
X98665Y125834D01*
X99998Y129833D02*
X101331D01*
X100665D01*
Y125834D01*
X99998D01*
X101331D01*
X105997Y129166D02*
X105330Y129833D01*
X103997D01*
X103331Y129166D01*
Y126500D01*
X103997Y125834D01*
X105330D01*
X105997Y126500D01*
Y127833D01*
X104664D01*
X107329Y129833D02*
Y125834D01*
Y127833D01*
X109995D01*
Y129833D01*
Y125834D01*
X111328Y129833D02*
X113994D01*
X112661D01*
Y125834D01*
X182838Y106666D02*
X182172Y107333D01*
X180839D01*
X180172Y106666D01*
Y106000D01*
X180839Y105333D01*
X182172D01*
X182838Y104667D01*
Y104000D01*
X182172Y103334D01*
X180839D01*
X180172Y104000D01*
X184171Y107333D02*
Y103334D01*
X185504Y104667D01*
X186837Y103334D01*
Y107333D01*
X188170Y102667D02*
X190835D01*
X192168Y107333D02*
Y103334D01*
X194168D01*
X194834Y104000D01*
Y106666D01*
X194168Y107333D01*
X192168D01*
X196167Y102667D02*
X198833D01*
X200166Y107333D02*
Y103334D01*
X202832D01*
X206830Y107333D02*
X204165D01*
Y103334D01*
X206830D01*
X204165Y105333D02*
X205497D01*
X210829Y107333D02*
X208163D01*
Y105333D01*
X209496D01*
X208163D01*
Y103334D01*
X212162Y107333D02*
X214828D01*
X213495D01*
Y103334D01*
X115338Y89166D02*
X114672Y89833D01*
X113339D01*
X112672Y89166D01*
Y88500D01*
X113339Y87833D01*
X114672D01*
X115338Y87167D01*
Y86500D01*
X114672Y85834D01*
X113339D01*
X112672Y86500D01*
X116671Y89833D02*
Y85834D01*
X118004Y87167D01*
X119337Y85834D01*
Y89833D01*
X120670Y85167D02*
X123336D01*
X124668Y89833D02*
Y85834D01*
X126668D01*
X127334Y86500D01*
Y89166D01*
X126668Y89833D01*
X124668D01*
X128667Y85167D02*
X131333D01*
X132666Y89833D02*
Y85834D01*
X134665D01*
X135332Y86500D01*
Y89166D01*
X134665Y89833D01*
X132666D01*
X138664D02*
X137331D01*
X136664Y89166D01*
Y86500D01*
X137331Y85834D01*
X138664D01*
X139330Y86500D01*
Y89166D01*
X138664Y89833D01*
X140663D02*
Y85834D01*
X141996Y87167D01*
X143329Y85834D01*
Y89833D01*
X144662Y85834D02*
Y89833D01*
X147328Y85834D01*
Y89833D01*
X326172Y129166D02*
X325505Y129833D01*
X324173D01*
X323506Y129166D01*
Y128500D01*
X324173Y127833D01*
X325505D01*
X326172Y127167D01*
Y126500D01*
X325505Y125834D01*
X324173D01*
X323506Y126500D01*
X327505Y129833D02*
Y125834D01*
X328838Y127167D01*
X330171Y125834D01*
Y129833D01*
X331504Y125167D02*
X334169D01*
X338168Y129166D02*
X337502Y129833D01*
X336169D01*
X335502Y129166D01*
Y126500D01*
X336169Y125834D01*
X337502D01*
X338168Y126500D01*
X339501Y125167D02*
X342167D01*
X343500Y125834D02*
Y129833D01*
X345499D01*
X346165Y129166D01*
Y127833D01*
X345499Y127167D01*
X343500D01*
X344833D02*
X346165Y125834D01*
X347498Y129833D02*
X348831D01*
X348165D01*
Y125834D01*
X347498D01*
X348831D01*
X353497Y129166D02*
X352830Y129833D01*
X351497D01*
X350831Y129166D01*
Y126500D01*
X351497Y125834D01*
X352830D01*
X353497Y126500D01*
Y127833D01*
X352164D01*
X354829Y129833D02*
Y125834D01*
Y127833D01*
X357495D01*
Y129833D01*
Y125834D01*
X358828Y129833D02*
X361494D01*
X360161D01*
Y125834D01*
X235338Y126666D02*
X234672Y127333D01*
X233339D01*
X232672Y126666D01*
Y126000D01*
X233339Y125333D01*
X234672D01*
X235338Y124667D01*
Y124000D01*
X234672Y123334D01*
X233339D01*
X232672Y124000D01*
X236671Y127333D02*
Y123334D01*
X238004Y124667D01*
X239337Y123334D01*
Y127333D01*
X240670Y122667D02*
X243336D01*
X247334Y126666D02*
X246668Y127333D01*
X245335D01*
X244668Y126666D01*
Y124000D01*
X245335Y123334D01*
X246668D01*
X247334Y124000D01*
X248667Y122667D02*
X251333D01*
X252666Y127333D02*
Y123334D01*
X255332D01*
X259330Y127333D02*
X256664D01*
Y123334D01*
X259330D01*
X256664Y125333D02*
X257997D01*
X263329Y127333D02*
X260663D01*
Y125333D01*
X261996D01*
X260663D01*
Y123334D01*
X264662Y127333D02*
X267328D01*
X265995D01*
Y123334D01*
X285338Y89166D02*
X284672Y89833D01*
X283339D01*
X282672Y89166D01*
Y88500D01*
X283339Y87833D01*
X284672D01*
X285338Y87167D01*
Y86500D01*
X284672Y85834D01*
X283339D01*
X282672Y86500D01*
X286671Y89833D02*
Y85834D01*
X288004Y87167D01*
X289337Y85834D01*
Y89833D01*
X290670Y85167D02*
X293336D01*
X297334Y89166D02*
X296668Y89833D01*
X295335D01*
X294668Y89166D01*
Y86500D01*
X295335Y85834D01*
X296668D01*
X297334Y86500D01*
X298667Y85167D02*
X301333D01*
X302666Y89833D02*
Y85834D01*
X304665D01*
X305332Y86500D01*
Y89166D01*
X304665Y89833D01*
X302666D01*
X308664D02*
X307331D01*
X306664Y89166D01*
Y86500D01*
X307331Y85834D01*
X308664D01*
X309330Y86500D01*
Y89166D01*
X308664Y89833D01*
X310663D02*
Y85834D01*
X311996Y87167D01*
X313329Y85834D01*
Y89833D01*
X314662Y85834D02*
Y89833D01*
X317328Y85834D01*
Y89833D01*
X365866Y175832D02*
X365199Y176499D01*
X363866D01*
X363200Y175832D01*
Y175166D01*
X363866Y174499D01*
X365199D01*
X365866Y173833D01*
Y173167D01*
X365199Y172500D01*
X363866D01*
X363200Y173167D01*
X367199Y176499D02*
Y172500D01*
X368532Y173833D01*
X369865Y172500D01*
Y176499D01*
X371197Y171834D02*
X373863D01*
X375196Y176499D02*
Y172500D01*
X377196D01*
X377862Y173167D01*
Y173833D01*
X377196Y174499D01*
X375196D01*
X377196D01*
X377862Y175166D01*
Y175832D01*
X377196Y176499D01*
X375196D01*
X414766Y224832D02*
X414099Y225499D01*
X412766D01*
X412100Y224832D01*
Y224166D01*
X412766Y223499D01*
X414099D01*
X414766Y222833D01*
Y222166D01*
X414099Y221500D01*
X412766D01*
X412100Y222166D01*
X416099Y225499D02*
Y221500D01*
X417432Y222833D01*
X418764Y221500D01*
Y225499D01*
X420097Y220834D02*
X422763D01*
X424096Y221500D02*
Y224166D01*
X425429Y225499D01*
X426762Y224166D01*
Y221500D01*
Y223499D01*
X424096D01*
X140335Y241666D02*
X139668Y242333D01*
X138336D01*
X137669Y241666D01*
Y241000D01*
X138336Y240333D01*
X139668D01*
X140335Y239667D01*
Y239000D01*
X139668Y238334D01*
X138336D01*
X137669Y239000D01*
X141668Y242333D02*
Y238334D01*
X143001Y239667D01*
X144334Y238334D01*
Y242333D01*
X145667Y237667D02*
X148332D01*
X149665Y240333D02*
X152331D01*
X270866Y245832D02*
X270199Y246499D01*
X268866D01*
X268200Y245832D01*
Y245166D01*
X268866Y244499D01*
X270199D01*
X270866Y243833D01*
Y243166D01*
X270199Y242500D01*
X268866D01*
X268200Y243166D01*
X272199Y246499D02*
Y242500D01*
X273532Y243833D01*
X274865Y242500D01*
Y246499D01*
X276197Y241834D02*
X278863D01*
X280196Y244499D02*
X282862D01*
X281529Y245832D02*
Y243166D01*
X312337Y286666D02*
X311671Y287333D01*
X310338D01*
X309672Y286666D01*
Y286000D01*
X310338Y285333D01*
X311671D01*
X312337Y284667D01*
Y284000D01*
X311671Y283334D01*
X310338D01*
X309672Y284000D01*
X313670Y287333D02*
Y283334D01*
X315003Y284667D01*
X316336Y283334D01*
Y287333D01*
X317669Y282667D02*
X320335D01*
X324334Y286666D02*
X323667Y287333D01*
X322334D01*
X321668Y286666D01*
Y286000D01*
X322334Y285333D01*
X323667D01*
X324334Y284667D01*
Y284000D01*
X323667Y283334D01*
X322334D01*
X321668Y284000D01*
X325666Y283334D02*
Y287333D01*
X327666D01*
X328332Y286666D01*
Y285333D01*
X327666Y284667D01*
X325666D01*
X329665Y283334D02*
Y286000D01*
X330998Y287333D01*
X332331Y286000D01*
Y283334D01*
Y285333D01*
X329665D01*
X333664Y283334D02*
Y287333D01*
X335663D01*
X336330Y286666D01*
Y285333D01*
X335663Y284667D01*
X333664D01*
X334997D02*
X336330Y283334D01*
X340328Y287333D02*
X337663D01*
Y283334D01*
X340328D01*
X337663Y285333D02*
X338996D01*
X405835Y279166D02*
X405169Y279833D01*
X403836D01*
X403170Y279166D01*
Y278500D01*
X403836Y277833D01*
X405169D01*
X405835Y277167D01*
Y276500D01*
X405169Y275834D01*
X403836D01*
X403170Y276500D01*
X407168Y279833D02*
Y275834D01*
X409168D01*
X409834Y276500D01*
Y277167D01*
X409168Y277833D01*
X407168D01*
X409168D01*
X409834Y278500D01*
Y279166D01*
X409168Y279833D01*
X407168D01*
X411167Y275167D02*
X413833D01*
X415166Y275834D02*
Y279833D01*
X417165D01*
X417832Y279166D01*
Y277833D01*
X417165Y277167D01*
X415166D01*
X416499D02*
X417832Y275834D01*
X419165Y279833D02*
Y275834D01*
X421164D01*
X421830Y276500D01*
Y277167D01*
X421164Y277833D01*
X419165D01*
X421164D01*
X421830Y278500D01*
Y279166D01*
X421164Y279833D01*
X419165D01*
X73335Y289166D02*
X72669Y289833D01*
X71336D01*
X70670Y289166D01*
Y288500D01*
X71336Y287833D01*
X72669D01*
X73335Y287167D01*
Y286500D01*
X72669Y285834D01*
X71336D01*
X70670Y286500D01*
X74668Y289833D02*
Y285834D01*
X76668D01*
X77334Y286500D01*
Y287167D01*
X76668Y287833D01*
X74668D01*
X76668D01*
X77334Y288500D01*
Y289166D01*
X76668Y289833D01*
X74668D01*
X78667Y285167D02*
X81333D01*
X82666Y289833D02*
Y285834D01*
X85332D01*
X86664Y289833D02*
Y285834D01*
X88664D01*
X89330Y286500D01*
Y287167D01*
X88664Y287833D01*
X86664D01*
X88664D01*
X89330Y288500D01*
Y289166D01*
X88664Y289833D01*
X86664D01*
M02*
