G04*
G04 #@! TF.GenerationSoftware,Altium Limited,CircuitMaker,2.2.1 (2.2.1.6)*
G04*
G04 Layer_Color=20142*
%FSLAX25Y25*%
%MOIN*%
G70*
G04*
G04 #@! TF.SameCoordinates,AAD4B4F7-D1E0-42C2-89CD-4A0885FF1A0E*
G04*
G04*
G04 #@! TF.FilePolarity,Negative*
G04*
G01*
G75*
%ADD13R,0.05131X0.07887*%
%ADD14O,0.05131X0.07887*%
%ADD15R,0.07887X0.05131*%
%ADD16O,0.07887X0.05131*%
%ADD17C,0.06800*%
%ADD18C,0.08674*%
%ADD19C,0.09855*%
%ADD20C,0.09461*%
%ADD21C,0.07887*%
%ADD22C,0.07099*%
%ADD23C,0.05800*%
D13*
X327716Y187795D02*
D03*
Y92795D02*
D03*
X272284Y117205D02*
D03*
X172283D02*
D03*
X102284D02*
D03*
X417717Y187795D02*
D03*
D14*
X342284D02*
D03*
X327716Y212205D02*
D03*
X342284D02*
D03*
Y92795D02*
D03*
X327716Y117205D02*
D03*
X342284D02*
D03*
X257716Y117205D02*
D03*
X272284Y92795D02*
D03*
X257716D02*
D03*
X157717Y117205D02*
D03*
X172283Y92795D02*
D03*
X157717D02*
D03*
X87717Y117205D02*
D03*
X102284Y92795D02*
D03*
X87717D02*
D03*
X432283Y187795D02*
D03*
X417717Y212205D02*
D03*
X432283D02*
D03*
D15*
X367795Y247284D02*
D03*
X312795Y277284D02*
D03*
X287795Y147283D02*
D03*
Y77284D02*
D03*
X142205Y132717D02*
D03*
Y62717D02*
D03*
X132795Y232283D02*
D03*
X367795Y162284D02*
D03*
X272795Y232283D02*
D03*
X202795Y257283D02*
D03*
D16*
X367795Y232716D02*
D03*
X392205Y247284D02*
D03*
Y232716D02*
D03*
X312795Y262717D02*
D03*
X337205Y277284D02*
D03*
Y262717D02*
D03*
X287795Y132717D02*
D03*
X312205Y147283D02*
D03*
Y132717D02*
D03*
X287795Y62717D02*
D03*
X312205Y77284D02*
D03*
Y62717D02*
D03*
X142205Y147283D02*
D03*
X117795Y132717D02*
D03*
Y147283D02*
D03*
X142205Y77284D02*
D03*
X117795Y62717D02*
D03*
Y77284D02*
D03*
X132795Y217717D02*
D03*
X157205Y232283D02*
D03*
Y217717D02*
D03*
X367795Y147716D02*
D03*
X392205Y162284D02*
D03*
Y147716D02*
D03*
X272795Y217717D02*
D03*
X297205Y232283D02*
D03*
Y217717D02*
D03*
X202795Y242717D02*
D03*
X227205Y257283D02*
D03*
Y242717D02*
D03*
D17*
X332677Y240158D02*
D03*
X127953Y265748D02*
D03*
X383858Y108268D02*
D03*
X49213Y118110D02*
D03*
D18*
X371142Y280000D02*
D03*
X388858D02*
D03*
X41142D02*
D03*
X58858D02*
D03*
D19*
X393799Y270197D02*
D03*
X366201D02*
D03*
X63799D02*
D03*
X36201D02*
D03*
D20*
X25098Y219685D02*
D03*
X74902D02*
D03*
Y180315D02*
D03*
X25098D02*
D03*
D21*
X62795Y159646D02*
D03*
X37205D02*
D03*
X62795Y177362D02*
D03*
X37205D02*
D03*
D22*
X84370Y190157D02*
D03*
Y200000D02*
D03*
Y209842D02*
D03*
X59842Y234370D02*
D03*
X50000D02*
D03*
X40157D02*
D03*
D23*
X124707Y174241D02*
D03*
X305000Y119000D02*
D03*
X338000Y73000D02*
D03*
X240000Y75000D02*
D03*
X92000Y146000D02*
D03*
X154000Y271000D02*
D03*
X42000Y205000D02*
D03*
X382000Y196000D02*
D03*
X415000Y133000D02*
D03*
X120000Y211000D02*
D03*
Y245000D02*
D03*
X264588Y224385D02*
D03*
X296000Y277000D02*
D03*
X273000Y205000D02*
D03*
X267000Y194500D02*
D03*
X367587Y214234D02*
D03*
X342500Y174500D02*
D03*
X432000Y169500D02*
D03*
X344500Y147500D02*
D03*
X272000Y138000D02*
D03*
X283500Y120500D02*
D03*
X356500Y92500D02*
D03*
X260500Y62500D02*
D03*
X131000Y204500D02*
D03*
X128500Y194500D02*
D03*
X154800Y137900D02*
D03*
X113400Y117600D02*
D03*
X159088Y126439D02*
D03*
X170100Y62700D02*
D03*
M02*
