G04*
G04 #@! TF.GenerationSoftware,Altium Limited,CircuitMaker,2.2.1 (2.2.1.6)*
G04*
G04 Layer_Color=128*
%FSLAX25Y25*%
%MOIN*%
G70*
G04*
G04 #@! TF.SameCoordinates,AAD4B4F7-D1E0-42C2-89CD-4A0885FF1A0E*
G04*
G04*
G04 #@! TF.FilePolarity,Positive*
G04*
G01*
G75*
%ADD41C,0.00200*%
D41*
X325394Y240158D02*
X339961D01*
X332677Y232874D02*
Y247441D01*
X120669Y265748D02*
X135236D01*
X127953Y258465D02*
Y273031D01*
X376575Y108268D02*
X391142D01*
X383858Y100984D02*
Y115551D01*
X41929Y118110D02*
X56496D01*
X49213Y110827D02*
Y125394D01*
X369173Y280000D02*
X373110D01*
X371142Y278031D02*
Y281968D01*
X386890Y280000D02*
X390827D01*
X388858Y278031D02*
Y281968D01*
X391240Y270197D02*
X396358D01*
X393799Y267638D02*
Y272756D01*
X363642Y270197D02*
X368760D01*
X366201Y267638D02*
Y272756D01*
X39173Y280000D02*
X43110D01*
X41142Y278031D02*
Y281968D01*
X56890Y280000D02*
X60827D01*
X58858Y278031D02*
Y281968D01*
X61240Y270197D02*
X66358D01*
X63799Y267638D02*
Y272756D01*
X33642Y270197D02*
X38760D01*
X36201Y267638D02*
Y272756D01*
X22146Y219685D02*
X28051D01*
X25098Y216732D02*
Y222638D01*
X71949Y219685D02*
X77854D01*
X74902Y216732D02*
Y222638D01*
X71949Y180315D02*
X77854D01*
X74902Y177362D02*
Y183268D01*
X22146Y180315D02*
X28051D01*
X25098Y177362D02*
Y183268D01*
X60433Y159646D02*
X65158D01*
X62795Y157283D02*
Y162008D01*
X34843Y159646D02*
X39567D01*
X37205Y157283D02*
Y162008D01*
X60433Y177362D02*
X65158D01*
X62795Y175000D02*
Y179724D01*
X34843Y177362D02*
X39567D01*
X37205Y175000D02*
Y179724D01*
X82402Y190157D02*
X86339D01*
X84370Y188189D02*
Y192126D01*
X82402Y200000D02*
X86339D01*
X84370Y198031D02*
Y201969D01*
X82402Y209842D02*
X86339D01*
X84370Y207874D02*
Y211811D01*
X57874Y234370D02*
X61811D01*
X59842Y232402D02*
Y236339D01*
X48031Y234370D02*
X51968D01*
X50000Y232402D02*
Y236339D01*
X38189Y234370D02*
X42126D01*
X40157Y232402D02*
Y236339D01*
X123307Y174241D02*
X126107D01*
X124707Y172841D02*
Y175641D01*
X303600Y119000D02*
X306400D01*
X305000Y117600D02*
Y120400D01*
X336600Y73000D02*
X339400D01*
X338000Y71600D02*
Y74400D01*
X238600Y75000D02*
X241400D01*
X240000Y73600D02*
Y76400D01*
X90600Y146000D02*
X93400D01*
X92000Y144600D02*
Y147400D01*
X152600Y271000D02*
X155400D01*
X154000Y269600D02*
Y272400D01*
X40600Y205000D02*
X43400D01*
X42000Y203600D02*
Y206400D01*
X380600Y196000D02*
X383400D01*
X382000Y194600D02*
Y197400D01*
X413600Y133000D02*
X416400D01*
X415000Y131600D02*
Y134400D01*
X118600Y211000D02*
X121400D01*
X120000Y209600D02*
Y212400D01*
X118600Y245000D02*
X121400D01*
X120000Y243600D02*
Y246400D01*
X263188Y224385D02*
X265988D01*
X264588Y222985D02*
Y225785D01*
X294600Y277000D02*
X297400D01*
X296000Y275600D02*
Y278400D01*
X271600Y205000D02*
X274400D01*
X273000Y203600D02*
Y206400D01*
X265600Y194500D02*
X268400D01*
X267000Y193100D02*
Y195900D01*
X366187Y214234D02*
X368987D01*
X367587Y212834D02*
Y215634D01*
X341100Y174500D02*
X343900D01*
X342500Y173100D02*
Y175900D01*
X430600Y169500D02*
X433400D01*
X432000Y168100D02*
Y170900D01*
X343100Y147500D02*
X345900D01*
X344500Y146100D02*
Y148900D01*
X270600Y138000D02*
X273400D01*
X272000Y136600D02*
Y139400D01*
X282100Y120500D02*
X284900D01*
X283500Y119100D02*
Y121900D01*
X355100Y92500D02*
X357900D01*
X356500Y91100D02*
Y93900D01*
X259100Y62500D02*
X261900D01*
X260500Y61100D02*
Y63900D01*
X129600Y204500D02*
X132400D01*
X131000Y203100D02*
Y205900D01*
X127100Y194500D02*
X129900D01*
X128500Y193100D02*
Y195900D01*
X153400Y137900D02*
X156200D01*
X154800Y136500D02*
Y139300D01*
X112000Y117600D02*
X114800D01*
X113400Y116200D02*
Y119000D01*
X157688Y126439D02*
X160488D01*
X159088Y125040D02*
Y127840D01*
X168700Y62700D02*
X171500D01*
X170100Y61300D02*
Y64100D01*
M02*
