G04*
G04 #@! TF.GenerationSoftware,Altium Limited,CircuitMaker,2.2.1 (2.2.1.6)*
G04*
G04 Layer_Color=8150272*
%FSLAX25Y25*%
%MOIN*%
G70*
G04*
G04 #@! TF.SameCoordinates,AAD4B4F7-D1E0-42C2-89CD-4A0885FF1A0E*
G04*
G04*
G04 #@! TF.FilePolarity,Negative*
G04*
G01*
G75*
%ADD15R,0.07887X0.05131*%
%ADD16O,0.07887X0.05131*%
%ADD17C,0.06800*%
%ADD18C,0.08674*%
%ADD19C,0.09855*%
%ADD20C,0.09461*%
%ADD21C,0.07887*%
%ADD22C,0.07099*%
%ADD23C,0.05800*%
G04:AMPARAMS|DCode=38|XSize=68mil|YSize=68mil|CornerRadius=8.5mil|HoleSize=0mil|Usage=FLASHONLY|Rotation=180.000|XOffset=0mil|YOffset=0mil|HoleType=Round|Shape=RoundedRectangle|*
%AMROUNDEDRECTD38*
21,1,0.06800,0.05100,0,0,180.0*
21,1,0.05100,0.06800,0,0,180.0*
1,1,0.01700,-0.02550,0.02550*
1,1,0.01700,0.02550,0.02550*
1,1,0.01700,0.02550,-0.02550*
1,1,0.01700,-0.02550,-0.02550*
%
%ADD38ROUNDEDRECTD38*%
G04:AMPARAMS|DCode=39|XSize=133.98mil|YSize=70.99mil|CornerRadius=19.75mil|HoleSize=0mil|Usage=FLASHONLY|Rotation=180.000|XOffset=0mil|YOffset=0mil|HoleType=Round|Shape=RoundedRectangle|*
%AMROUNDEDRECTD39*
21,1,0.13398,0.03150,0,0,180.0*
21,1,0.09449,0.07099,0,0,180.0*
1,1,0.03950,-0.04724,0.01575*
1,1,0.03950,0.04724,0.01575*
1,1,0.03950,0.04724,-0.01575*
1,1,0.03950,-0.04724,-0.01575*
%
%ADD39ROUNDEDRECTD39*%
D15*
X392205Y257283D02*
D03*
X227205Y75783D02*
D03*
X62205Y257283D02*
D03*
D16*
X392205Y242717D02*
D03*
X367795Y257283D02*
D03*
Y242717D02*
D03*
X227205Y61216D02*
D03*
X202795Y75783D02*
D03*
Y61216D02*
D03*
X62205Y242717D02*
D03*
X37795Y257283D02*
D03*
Y242717D02*
D03*
D17*
X192850Y167059D02*
D03*
X202850D02*
D03*
X332677Y240158D02*
D03*
X127953Y265748D02*
D03*
X383858Y108268D02*
D03*
X49213Y118110D02*
D03*
D18*
X371142Y280000D02*
D03*
X388858D02*
D03*
X41142D02*
D03*
X58858D02*
D03*
D19*
X393799Y270197D02*
D03*
X366201D02*
D03*
X63799D02*
D03*
X36201D02*
D03*
D20*
X25098Y219685D02*
D03*
X74902D02*
D03*
Y180315D02*
D03*
X25098D02*
D03*
D21*
X62795Y159646D02*
D03*
X37205D02*
D03*
X62795Y177362D02*
D03*
X37205D02*
D03*
D22*
X84370Y190157D02*
D03*
Y200000D02*
D03*
Y209842D02*
D03*
X59842Y234370D02*
D03*
X50000D02*
D03*
X40157D02*
D03*
D23*
X124707Y174241D02*
D03*
X305000Y119000D02*
D03*
X338000Y73000D02*
D03*
X240000Y75000D02*
D03*
X92000Y146000D02*
D03*
X154000Y271000D02*
D03*
X42000Y205000D02*
D03*
X382000Y196000D02*
D03*
X415000Y133000D02*
D03*
X120000Y211000D02*
D03*
Y245000D02*
D03*
X264588Y224385D02*
D03*
X296000Y277000D02*
D03*
X273000Y205000D02*
D03*
X267000Y194500D02*
D03*
X367587Y214234D02*
D03*
X342500Y174500D02*
D03*
X432000Y169500D02*
D03*
X344500Y147500D02*
D03*
X272000Y138000D02*
D03*
X283500Y120500D02*
D03*
X356500Y92500D02*
D03*
X260500Y62500D02*
D03*
X131000Y204500D02*
D03*
X128500Y194500D02*
D03*
X154800Y137900D02*
D03*
X113400Y117600D02*
D03*
X159088Y126439D02*
D03*
X170100Y62700D02*
D03*
D38*
X212850Y167059D02*
D03*
D39*
X253299Y94500D02*
D03*
Y104500D02*
D03*
Y114500D02*
D03*
Y124500D02*
D03*
Y134500D02*
D03*
Y144500D02*
D03*
Y154500D02*
D03*
Y164500D02*
D03*
Y174500D02*
D03*
Y184500D02*
D03*
Y194500D02*
D03*
Y204500D02*
D03*
Y214500D02*
D03*
Y224500D02*
D03*
Y234500D02*
D03*
Y244500D02*
D03*
Y254500D02*
D03*
Y264500D02*
D03*
Y274500D02*
D03*
Y284500D02*
D03*
X177000Y94500D02*
D03*
Y104500D02*
D03*
Y114500D02*
D03*
Y124500D02*
D03*
Y134500D02*
D03*
Y144500D02*
D03*
Y154500D02*
D03*
Y164500D02*
D03*
Y174500D02*
D03*
Y184500D02*
D03*
Y194500D02*
D03*
Y204500D02*
D03*
Y214500D02*
D03*
Y224500D02*
D03*
Y234500D02*
D03*
Y244500D02*
D03*
Y254500D02*
D03*
Y264500D02*
D03*
Y274500D02*
D03*
Y284500D02*
D03*
M02*
