G04*
G04 #@! TF.GenerationSoftware,Altium Limited,CircuitMaker,2.2.1 (2.2.1.6)*
G04*
G04 Layer_Color=13813960*
%FSLAX25Y25*%
%MOIN*%
G70*
G04*
G04 #@! TF.SameCoordinates,AAD4B4F7-D1E0-42C2-89CD-4A0885FF1A0E*
G04*
G04*
G04 #@! TF.FilePolarity,Positive*
G04*
G01*
G75*
%ADD10C,0.00591*%
%ADD11C,0.00787*%
%ADD12C,0.01000*%
%ADD40C,0.02756*%
D10*
X383937Y250000D02*
G03*
X383937Y250000I-3937J0D01*
G01*
X218937Y68500D02*
G03*
X218937Y68500I-3937J0D01*
G01*
X53937Y250000D02*
G03*
X53937Y250000I-3937J0D01*
G01*
D11*
X369764Y246063D02*
Y253937D01*
X374095Y239764D02*
X385906D01*
X374095Y260236D02*
X385906D01*
X390236Y246457D02*
Y253937D01*
X204764Y64563D02*
Y72437D01*
X209095Y58264D02*
X220905D01*
X209095Y78736D02*
X220905D01*
X225236Y64957D02*
Y72437D01*
X39764Y246063D02*
Y253937D01*
X44094Y239764D02*
X55905D01*
X44094Y260236D02*
X55905D01*
X60236Y246457D02*
Y253937D01*
D12*
X173811Y289894D02*
X256488D01*
X173811Y89106D02*
X256488D01*
X300996Y282001D02*
Y287999D01*
X297997D01*
X296997Y286999D01*
Y285000D01*
X297997Y284000D01*
X300996D01*
X294998Y287999D02*
X292998D01*
X293998D01*
Y282001D01*
X294998D01*
X292998D01*
X286000Y286999D02*
X287000Y287999D01*
X289000D01*
X289999Y286999D01*
Y283001D01*
X289000Y282001D01*
X287000D01*
X286000Y283001D01*
X281002Y287999D02*
X283001D01*
X284001Y286999D01*
Y283001D01*
X283001Y282001D01*
X281002D01*
X280002Y283001D01*
Y286999D01*
X281002Y287999D01*
X278003Y286999D02*
X274004Y283001D01*
X278003D02*
X274004Y286999D01*
X278003Y285000D02*
X274004D01*
X276004Y283001D02*
Y286999D01*
X419165Y256666D02*
X419831Y257333D01*
X421164D01*
X421830Y256666D01*
Y256000D01*
X421164Y255333D01*
X419831D01*
X419165Y254667D01*
Y254000D01*
X419831Y253334D01*
X421164D01*
X421830Y254000D01*
X417832Y257333D02*
Y253334D01*
X416499Y254667D01*
X415166Y253334D01*
Y257333D01*
X413833Y252667D02*
X411167D01*
X409834Y253334D02*
Y257333D01*
X407835D01*
X407168Y256666D01*
Y255333D01*
X407835Y254667D01*
X409834D01*
X408501D02*
X407168Y253334D01*
X405835Y257333D02*
X403170D01*
X404503D01*
Y253334D01*
X84165Y254166D02*
X84831Y254833D01*
X86164D01*
X86830Y254166D01*
Y253500D01*
X86164Y252833D01*
X84831D01*
X84165Y252167D01*
Y251500D01*
X84831Y250834D01*
X86164D01*
X86830Y251500D01*
X82832Y254833D02*
Y250834D01*
X81499Y252167D01*
X80166Y250834D01*
Y254833D01*
X78833Y250167D02*
X76167D01*
X74834Y254833D02*
Y250834D01*
X72168D01*
X70836Y254833D02*
X68170D01*
X69503D01*
Y250834D01*
X227663Y86666D02*
X228329Y87333D01*
X229662D01*
X230328Y86666D01*
Y86000D01*
X229662Y85333D01*
X228329D01*
X227663Y84667D01*
Y84000D01*
X228329Y83334D01*
X229662D01*
X230328Y84000D01*
X226330Y87333D02*
Y83334D01*
X224997Y84667D01*
X223664Y83334D01*
Y87333D01*
X222331Y82667D02*
X219665D01*
X218332Y83334D02*
Y87333D01*
X216333D01*
X215666Y86666D01*
Y85333D01*
X216333Y84667D01*
X218332D01*
X216999D02*
X215666Y83334D01*
X211668Y87333D02*
X214334D01*
Y83334D01*
X211668D01*
X214334Y85333D02*
X213001D01*
X207669Y86666D02*
X208335Y87333D01*
X209668D01*
X210335Y86666D01*
Y86000D01*
X209668Y85333D01*
X208335D01*
X207669Y84667D01*
Y84000D01*
X208335Y83334D01*
X209668D01*
X210335Y84000D01*
X203670Y87333D02*
X206336D01*
Y83334D01*
X203670D01*
X206336Y85333D02*
X205003D01*
X202337Y87333D02*
X199672D01*
X201005D01*
Y83334D01*
D40*
X266866Y284606D02*
G03*
X266866Y284606I-1378J0D01*
G01*
M02*
