G04*
G04 #@! TF.GenerationSoftware,Altium Limited,CircuitMaker,2.2.1 (2.2.1.6)*
G04*
G04 Layer_Color=2752767*
%FSLAX25Y25*%
%MOIN*%
G70*
G04*
G04 #@! TF.SameCoordinates,AAD4B4F7-D1E0-42C2-89CD-4A0885FF1A0E*
G04*
G04*
G04 #@! TF.FilePolarity,Positive*
G04*
G01*
G75*
%ADD41C,0.00200*%
%ADD42C,0.00267*%
D41*
X331877Y239357D02*
Y240957D01*
X333477D01*
Y239357D01*
X331877D01*
X127153Y264948D02*
Y266548D01*
X128753D01*
Y264948D01*
X127153D01*
X383058Y107468D02*
Y109068D01*
X384658D01*
Y107468D01*
X383058D01*
X48413Y117310D02*
Y118910D01*
X50013D01*
Y117310D01*
X48413D01*
X393799Y269397D02*
X392999Y270997D01*
X394599D01*
X393799Y269397D01*
X366201D02*
X365401Y270997D01*
X367001D01*
X366201Y269397D01*
X63799D02*
X62999Y270997D01*
X64599D01*
X63799Y269397D01*
X36201D02*
X35401Y270997D01*
X37001D01*
X36201Y269397D01*
X25098Y218885D02*
X25498Y219285D01*
X25898D01*
X25498Y219685D01*
X25898Y220085D01*
X25498D01*
X25098Y220485D01*
X24698Y220085D01*
X24298D01*
X24698Y219685D01*
X24298Y219285D01*
X24698D01*
X25098Y218885D01*
X74902D02*
X75302Y219285D01*
X75702D01*
X75302Y219685D01*
X75702Y220085D01*
X75302D01*
X74902Y220485D01*
X74502Y220085D01*
X74102D01*
X74502Y219685D01*
X74102Y219285D01*
X74502D01*
X74902Y218885D01*
Y179515D02*
X75302Y179915D01*
X75702D01*
X75302Y180315D01*
X75702Y180715D01*
X75302D01*
X74902Y181115D01*
X74502Y180715D01*
X74102D01*
X74502Y180315D01*
X74102Y179915D01*
X74502D01*
X74902Y179515D01*
X25098D02*
X25498Y179915D01*
X25898D01*
X25498Y180315D01*
X25898Y180715D01*
X25498D01*
X25098Y181115D01*
X24698Y180715D01*
X24298D01*
X24698Y180315D01*
X24298Y179915D01*
X24698D01*
X25098Y179515D01*
X61995Y158846D02*
X62395Y159646D01*
X61995Y160446D01*
X62795Y160046D01*
X63595Y160446D01*
X63195Y159646D01*
X63595Y158846D01*
X62795Y159246D01*
X61995Y158846D01*
X36405D02*
X36805Y159646D01*
X36405Y160446D01*
X37205Y160046D01*
X38005Y160446D01*
X37605Y159646D01*
X38005Y158846D01*
X37205Y159246D01*
X36405Y158846D01*
X61995Y176562D02*
X62395Y177362D01*
X61995Y178162D01*
X62795Y177762D01*
X63595Y178162D01*
X63195Y177362D01*
X63595Y176562D01*
X62795Y176962D01*
X61995Y176562D01*
X36405D02*
X36805Y177362D01*
X36405Y178162D01*
X37205Y177762D01*
X38005Y178162D01*
X37605Y177362D01*
X38005Y176562D01*
X37205Y176962D01*
X36405Y176562D01*
X124307Y173841D02*
Y173441D01*
X125107D01*
Y173841D01*
X125507D01*
Y174641D01*
X125107D01*
Y175041D01*
X124307D01*
Y174641D01*
X123907D01*
Y173841D01*
X124307D01*
X304600Y118600D02*
Y118200D01*
X305400D01*
Y118600D01*
X305800D01*
Y119400D01*
X305400D01*
Y119800D01*
X304600D01*
Y119400D01*
X304200D01*
Y118600D01*
X304600D01*
X337600Y72600D02*
Y72200D01*
X338400D01*
Y72600D01*
X338800D01*
Y73400D01*
X338400D01*
Y73800D01*
X337600D01*
Y73400D01*
X337200D01*
Y72600D01*
X337600D01*
X239600Y74600D02*
Y74200D01*
X240400D01*
Y74600D01*
X240800D01*
Y75400D01*
X240400D01*
Y75800D01*
X239600D01*
Y75400D01*
X239200D01*
Y74600D01*
X239600D01*
X91600Y145600D02*
Y145200D01*
X92400D01*
Y145600D01*
X92800D01*
Y146400D01*
X92400D01*
Y146800D01*
X91600D01*
Y146400D01*
X91200D01*
Y145600D01*
X91600D01*
X153600Y270600D02*
Y270200D01*
X154400D01*
Y270600D01*
X154800D01*
Y271400D01*
X154400D01*
Y271800D01*
X153600D01*
Y271400D01*
X153200D01*
Y270600D01*
X153600D01*
X41600Y204600D02*
Y204200D01*
X42400D01*
Y204600D01*
X42800D01*
Y205400D01*
X42400D01*
Y205800D01*
X41600D01*
Y205400D01*
X41200D01*
Y204600D01*
X41600D01*
X381600Y195600D02*
Y195200D01*
X382400D01*
Y195600D01*
X382800D01*
Y196400D01*
X382400D01*
Y196800D01*
X381600D01*
Y196400D01*
X381200D01*
Y195600D01*
X381600D01*
X414600Y132600D02*
Y132200D01*
X415400D01*
Y132600D01*
X415800D01*
Y133400D01*
X415400D01*
Y133800D01*
X414600D01*
Y133400D01*
X414200D01*
Y132600D01*
X414600D01*
X119600Y210600D02*
Y210200D01*
X120400D01*
Y210600D01*
X120800D01*
Y211400D01*
X120400D01*
Y211800D01*
X119600D01*
Y211400D01*
X119200D01*
Y210600D01*
X119600D01*
Y244600D02*
Y244200D01*
X120400D01*
Y244600D01*
X120800D01*
Y245400D01*
X120400D01*
Y245800D01*
X119600D01*
Y245400D01*
X119200D01*
Y244600D01*
X119600D01*
X264188Y223985D02*
Y223585D01*
X264988D01*
Y223985D01*
X265388D01*
Y224785D01*
X264988D01*
Y225185D01*
X264188D01*
Y224785D01*
X263788D01*
Y223985D01*
X264188D01*
X295600Y276600D02*
Y276200D01*
X296400D01*
Y276600D01*
X296800D01*
Y277400D01*
X296400D01*
Y277800D01*
X295600D01*
Y277400D01*
X295200D01*
Y276600D01*
X295600D01*
X272600Y204600D02*
Y204200D01*
X273400D01*
Y204600D01*
X273800D01*
Y205400D01*
X273400D01*
Y205800D01*
X272600D01*
Y205400D01*
X272200D01*
Y204600D01*
X272600D01*
X266600Y194100D02*
Y193700D01*
X267400D01*
Y194100D01*
X267800D01*
Y194900D01*
X267400D01*
Y195300D01*
X266600D01*
Y194900D01*
X266200D01*
Y194100D01*
X266600D01*
X367187Y213834D02*
Y213434D01*
X367987D01*
Y213834D01*
X368387D01*
Y214634D01*
X367987D01*
Y215034D01*
X367187D01*
Y214634D01*
X366787D01*
Y213834D01*
X367187D01*
X342100Y174100D02*
Y173700D01*
X342900D01*
Y174100D01*
X343300D01*
Y174900D01*
X342900D01*
Y175300D01*
X342100D01*
Y174900D01*
X341700D01*
Y174100D01*
X342100D01*
X431600Y169100D02*
Y168700D01*
X432400D01*
Y169100D01*
X432800D01*
Y169900D01*
X432400D01*
Y170300D01*
X431600D01*
Y169900D01*
X431200D01*
Y169100D01*
X431600D01*
X344100Y147100D02*
Y146700D01*
X344900D01*
Y147100D01*
X345300D01*
Y147900D01*
X344900D01*
Y148300D01*
X344100D01*
Y147900D01*
X343700D01*
Y147100D01*
X344100D01*
X271600Y137600D02*
Y137200D01*
X272400D01*
Y137600D01*
X272800D01*
Y138400D01*
X272400D01*
Y138800D01*
X271600D01*
Y138400D01*
X271200D01*
Y137600D01*
X271600D01*
X283100Y120100D02*
Y119700D01*
X283900D01*
Y120100D01*
X284300D01*
Y120900D01*
X283900D01*
Y121300D01*
X283100D01*
Y120900D01*
X282700D01*
Y120100D01*
X283100D01*
X356100Y92100D02*
Y91700D01*
X356900D01*
Y92100D01*
X357300D01*
Y92900D01*
X356900D01*
Y93300D01*
X356100D01*
Y92900D01*
X355700D01*
Y92100D01*
X356100D01*
X260100Y62100D02*
Y61700D01*
X260900D01*
Y62100D01*
X261300D01*
Y62900D01*
X260900D01*
Y63300D01*
X260100D01*
Y62900D01*
X259700D01*
Y62100D01*
X260100D01*
X130600Y204100D02*
Y203700D01*
X131400D01*
Y204100D01*
X131800D01*
Y204900D01*
X131400D01*
Y205300D01*
X130600D01*
Y204900D01*
X130200D01*
Y204100D01*
X130600D01*
X128100Y194100D02*
Y193700D01*
X128900D01*
Y194100D01*
X129300D01*
Y194900D01*
X128900D01*
Y195300D01*
X128100D01*
Y194900D01*
X127700D01*
Y194100D01*
X128100D01*
X154400Y137500D02*
Y137100D01*
X155200D01*
Y137500D01*
X155600D01*
Y138300D01*
X155200D01*
Y138700D01*
X154400D01*
Y138300D01*
X154000D01*
Y137500D01*
X154400D01*
X113000Y117200D02*
Y116800D01*
X113800D01*
Y117200D01*
X114200D01*
Y118000D01*
X113800D01*
Y118400D01*
X113000D01*
Y118000D01*
X112600D01*
Y117200D01*
X113000D01*
X158688Y126040D02*
Y125639D01*
X159488D01*
Y126040D01*
X159888D01*
Y126839D01*
X159488D01*
Y127240D01*
X158688D01*
Y126839D01*
X158288D01*
Y126040D01*
X158688D01*
X169700Y62300D02*
Y61900D01*
X170500D01*
Y62300D01*
X170900D01*
Y63100D01*
X170500D01*
Y63500D01*
X169700D01*
Y63100D01*
X169300D01*
Y62300D01*
X169700D01*
D42*
X371942Y280000D02*
G03*
X371942Y280000I-800J0D01*
G01*
X389658D02*
G03*
X389658Y280000I-800J0D01*
G01*
X41942D02*
G03*
X41942Y280000I-800J0D01*
G01*
X59658D02*
G03*
X59658Y280000I-800J0D01*
G01*
X85170Y190157D02*
G03*
X85170Y190157I-800J0D01*
G01*
Y200000D02*
G03*
X85170Y200000I-800J0D01*
G01*
Y209842D02*
G03*
X85170Y209842I-800J0D01*
G01*
X60642Y234370D02*
G03*
X60642Y234370I-800J0D01*
G01*
X50800D02*
G03*
X50800Y234370I-800J0D01*
G01*
X40957D02*
G03*
X40957Y234370I-800J0D01*
G01*
M02*
