G04*
G04 #@! TF.GenerationSoftware,Altium Limited,CircuitMaker,2.2.1 (2.2.1.6)*
G04*
G04 Layer_Physical_Order=1*
G04 Layer_Color=25308*
%FSLAX25Y25*%
%MOIN*%
G70*
G04*
G04 #@! TF.SameCoordinates,AAD4B4F7-D1E0-42C2-89CD-4A0885FF1A0E*
G04*
G04*
G04 #@! TF.FilePolarity,Positive*
G04*
G01*
G75*
%ADD12C,0.01000*%
%ADD24R,0.04331X0.07087*%
%ADD25O,0.04331X0.07087*%
%ADD26R,0.07087X0.04331*%
%ADD27O,0.07087X0.04331*%
%ADD28C,0.01500*%
%ADD29C,0.06000*%
%ADD30C,0.07874*%
%ADD31C,0.09055*%
%ADD32C,0.08661*%
%ADD33C,0.07087*%
%ADD34C,0.06299*%
%ADD35C,0.05000*%
G36*
X445538Y294538D02*
X445000Y294000D01*
X446000Y116000D01*
X385000Y55000D01*
X75000D01*
X15000Y116000D01*
Y295000D01*
X445347D01*
X445538Y294538D01*
D02*
G37*
%LPC*%
G36*
X41792Y284937D02*
X41642D01*
Y280500D01*
X46079D01*
Y280650D01*
X45742Y281906D01*
X45092Y283031D01*
X44173Y283951D01*
X43047Y284601D01*
X41792Y284937D01*
D02*
G37*
G36*
X371792D02*
X371642D01*
Y280500D01*
X376079D01*
Y280650D01*
X375742Y281906D01*
X375092Y283031D01*
X374173Y283951D01*
X373047Y284601D01*
X371792Y284937D01*
D02*
G37*
G36*
X370642D02*
X370492D01*
X369236Y284601D01*
X368110Y283951D01*
X367191Y283031D01*
X366541Y281906D01*
X366205Y280650D01*
Y280500D01*
X370642D01*
Y284937D01*
D02*
G37*
G36*
X40642D02*
X40492D01*
X39236Y284601D01*
X38110Y283951D01*
X37191Y283031D01*
X36541Y281906D01*
X36205Y280650D01*
Y280500D01*
X40642D01*
Y284937D01*
D02*
G37*
G36*
X370642Y279500D02*
X366205D01*
Y279350D01*
X366541Y278094D01*
X367191Y276969D01*
X368110Y276049D01*
X368573Y275782D01*
X368334Y275348D01*
X366929Y275724D01*
X365473D01*
X364067Y275348D01*
X362807Y274620D01*
X361778Y273591D01*
X361050Y272330D01*
X360673Y270925D01*
Y269469D01*
X361050Y268063D01*
X361778Y266803D01*
X362807Y265774D01*
X364067Y265046D01*
X365473Y264669D01*
X366929D01*
X368334Y265046D01*
X369595Y265774D01*
X370624Y266803D01*
X371352Y268063D01*
X371728Y269469D01*
Y270925D01*
X371352Y272330D01*
X370624Y273591D01*
X369595Y274620D01*
X368997Y274965D01*
X369236Y275399D01*
X370492Y275063D01*
X370642D01*
Y279500D01*
D02*
G37*
G36*
X40642D02*
X36205D01*
Y279350D01*
X36541Y278094D01*
X37191Y276969D01*
X38110Y276049D01*
X38573Y275782D01*
X38334Y275348D01*
X36928Y275724D01*
X35473D01*
X34067Y275348D01*
X32807Y274620D01*
X31778Y273591D01*
X31050Y272330D01*
X30673Y270925D01*
Y269469D01*
X31050Y268063D01*
X31778Y266803D01*
X32807Y265774D01*
X34067Y265046D01*
X35473Y264669D01*
X36928D01*
X38334Y265046D01*
X39595Y265774D01*
X40624Y266803D01*
X41352Y268063D01*
X41728Y269469D01*
Y270925D01*
X41352Y272330D01*
X40624Y273591D01*
X39595Y274620D01*
X38997Y274965D01*
X39236Y275399D01*
X40492Y275063D01*
X40642D01*
Y279500D01*
D02*
G37*
G36*
X376079D02*
X371642D01*
Y275063D01*
X371792D01*
X373047Y275399D01*
X374173Y276049D01*
X375092Y276969D01*
X375742Y278094D01*
X376079Y279350D01*
Y279500D01*
D02*
G37*
G36*
X46079D02*
X41642D01*
Y275063D01*
X41792D01*
X43047Y275399D01*
X44173Y276049D01*
X45092Y276969D01*
X45742Y278094D01*
X46079Y279350D01*
Y279500D01*
D02*
G37*
G36*
X154500Y274489D02*
Y271500D01*
X157490D01*
X157262Y272351D01*
X156801Y273149D01*
X156149Y273801D01*
X155351Y274261D01*
X154500Y274489D01*
D02*
G37*
G36*
X153500D02*
X152649Y274261D01*
X151851Y273801D01*
X151199Y273149D01*
X150739Y272351D01*
X150511Y271500D01*
X153500D01*
Y274489D01*
D02*
G37*
G36*
X157490Y270500D02*
X154500D01*
Y267511D01*
X155351Y267739D01*
X156149Y268199D01*
X156801Y268851D01*
X157262Y269649D01*
X157490Y270500D01*
D02*
G37*
G36*
X153500D02*
X150511D01*
X150739Y269649D01*
X151199Y268851D01*
X151851Y268199D01*
X152649Y267739D01*
X153500Y267511D01*
Y270500D01*
D02*
G37*
G36*
X389508Y284937D02*
X388208D01*
X386953Y284601D01*
X385827Y283951D01*
X384908Y283031D01*
X384258Y281906D01*
X383921Y280650D01*
Y279350D01*
X384258Y278094D01*
X384908Y276969D01*
X385827Y276049D01*
X386953Y275399D01*
X388208Y275063D01*
X389508D01*
X390764Y275399D01*
X391003Y274965D01*
X390405Y274620D01*
X389376Y273591D01*
X388648Y272330D01*
X388272Y270925D01*
Y269469D01*
X388648Y268063D01*
X389376Y266803D01*
X390405Y265774D01*
X391666Y265046D01*
X393072Y264669D01*
X394527D01*
X395933Y265046D01*
X397193Y265774D01*
X398222Y266803D01*
X398950Y268063D01*
X399327Y269469D01*
Y270925D01*
X398950Y272330D01*
X398222Y273591D01*
X397193Y274620D01*
X395933Y275348D01*
X394527Y275724D01*
X393072D01*
X391666Y275348D01*
X391427Y275782D01*
X391890Y276049D01*
X392809Y276969D01*
X393459Y278094D01*
X393795Y279350D01*
Y280650D01*
X393459Y281906D01*
X392809Y283031D01*
X391890Y283951D01*
X390764Y284601D01*
X389508Y284937D01*
D02*
G37*
G36*
X59508D02*
X58208D01*
X56953Y284601D01*
X55827Y283951D01*
X54908Y283031D01*
X54258Y281906D01*
X53921Y280650D01*
Y279350D01*
X54258Y278094D01*
X54908Y276969D01*
X55827Y276049D01*
X56953Y275399D01*
X58208Y275063D01*
X59508D01*
X60764Y275399D01*
X61003Y274965D01*
X60405Y274620D01*
X59376Y273591D01*
X58648Y272330D01*
X58272Y270925D01*
Y269469D01*
X58648Y268063D01*
X59376Y266803D01*
X60405Y265774D01*
X61666Y265046D01*
X63072Y264669D01*
X64527D01*
X65933Y265046D01*
X67193Y265774D01*
X68222Y266803D01*
X68950Y268063D01*
X69327Y269469D01*
Y270925D01*
X68950Y272330D01*
X68222Y273591D01*
X67193Y274620D01*
X65933Y275348D01*
X64527Y275724D01*
X63072D01*
X61666Y275348D01*
X61427Y275782D01*
X61890Y276049D01*
X62809Y276969D01*
X63459Y278094D01*
X63795Y279350D01*
Y280650D01*
X63459Y281906D01*
X62809Y283031D01*
X61890Y283951D01*
X60764Y284601D01*
X59508Y284937D01*
D02*
G37*
G36*
X296461Y280500D02*
X295539D01*
X294649Y280261D01*
X293851Y279801D01*
X293199Y279149D01*
X292739Y278351D01*
X292500Y277461D01*
Y276539D01*
X292739Y275649D01*
X293199Y274851D01*
X293851Y274199D01*
X294649Y273739D01*
X295539Y273500D01*
X296461D01*
X297351Y273739D01*
X298149Y274199D01*
X298801Y274851D01*
X299011Y275216D01*
X307283D01*
Y264094D01*
X308112D01*
X308390Y263679D01*
X308333Y263543D01*
X308291Y263216D01*
X317300D01*
X317257Y263543D01*
X317201Y263679D01*
X317479Y264094D01*
X321063D01*
Y275499D01*
X328937D01*
Y264094D01*
X332521D01*
X332799Y263679D01*
X332743Y263543D01*
X332700Y263216D01*
X341709D01*
X341667Y263543D01*
X341610Y263679D01*
X341888Y264094D01*
X342717D01*
Y275905D01*
X341888D01*
X341610Y276321D01*
X341667Y276457D01*
X341775Y277284D01*
X341667Y278110D01*
X341348Y278880D01*
X340840Y279541D01*
X340179Y280048D01*
X339409Y280367D01*
X338583Y280476D01*
X335827D01*
X335000Y280367D01*
X334230Y280048D01*
X333569Y279541D01*
X333206Y279068D01*
X317339D01*
Y280449D01*
X308252D01*
Y278784D01*
X299011D01*
X298801Y279149D01*
X298149Y279801D01*
X297351Y280261D01*
X296461Y280500D01*
D02*
G37*
G36*
X341709Y262216D02*
X337705D01*
Y259524D01*
X338583D01*
X339409Y259633D01*
X340179Y259952D01*
X340840Y260459D01*
X341348Y261120D01*
X341667Y261890D01*
X341709Y262216D01*
D02*
G37*
G36*
X336705D02*
X332700D01*
X332743Y261890D01*
X333062Y261120D01*
X333569Y260459D01*
X334230Y259952D01*
X335000Y259633D01*
X335827Y259524D01*
X336705D01*
Y262216D01*
D02*
G37*
G36*
X317300D02*
X313295D01*
Y259524D01*
X314173D01*
X315000Y259633D01*
X315770Y259952D01*
X316431Y260459D01*
X316938Y261120D01*
X317257Y261890D01*
X317300Y262216D01*
D02*
G37*
G36*
X312295D02*
X308291D01*
X308333Y261890D01*
X308652Y261120D01*
X309160Y260459D01*
X309821Y259952D01*
X310591Y259633D01*
X311417Y259524D01*
X312295D01*
Y262216D01*
D02*
G37*
G36*
X228583Y260476D02*
X227705D01*
Y257784D01*
X231710D01*
X231667Y258110D01*
X231348Y258880D01*
X230840Y259541D01*
X230179Y260048D01*
X229409Y260367D01*
X228583Y260476D01*
D02*
G37*
G36*
X226705D02*
X225827D01*
X225001Y260367D01*
X224231Y260048D01*
X223569Y259541D01*
X223062Y258880D01*
X222743Y258110D01*
X222700Y257784D01*
X226705D01*
Y260476D01*
D02*
G37*
G36*
X207339Y260449D02*
X203295D01*
Y257784D01*
X207339D01*
Y260449D01*
D02*
G37*
G36*
X202295D02*
X198252D01*
Y257784D01*
X202295D01*
Y260449D01*
D02*
G37*
G36*
X128769Y274031D02*
X127137D01*
X125537Y273713D01*
X124029Y273089D01*
X122672Y272182D01*
X121519Y271028D01*
X120612Y269672D01*
X119988Y268164D01*
X119669Y266564D01*
Y264932D01*
X119988Y263332D01*
X120612Y261824D01*
X121519Y260468D01*
X122672Y259314D01*
X124029Y258407D01*
X125537Y257783D01*
X127137Y257465D01*
X128769D01*
X130369Y257783D01*
X131876Y258407D01*
X133233Y259314D01*
X134387Y260468D01*
X135293Y261824D01*
X135918Y263332D01*
X136236Y264932D01*
Y266564D01*
X135918Y268164D01*
X135293Y269672D01*
X134387Y271028D01*
X133233Y272182D01*
X131876Y273089D01*
X130369Y273713D01*
X128769Y274031D01*
D02*
G37*
G36*
X393583Y250476D02*
X392705D01*
Y247783D01*
X396709D01*
X396667Y248110D01*
X396348Y248880D01*
X395840Y249541D01*
X395179Y250048D01*
X394409Y250367D01*
X393583Y250476D01*
D02*
G37*
G36*
X391705D02*
X390827D01*
X390001Y250367D01*
X389230Y250048D01*
X388569Y249541D01*
X388062Y248880D01*
X387743Y248110D01*
X387700Y247783D01*
X391705D01*
Y250476D01*
D02*
G37*
G36*
X372339Y250449D02*
X368295D01*
Y247783D01*
X372339D01*
Y250449D01*
D02*
G37*
G36*
X367295D02*
X363252D01*
Y247783D01*
X367295D01*
Y250449D01*
D02*
G37*
G36*
X120461Y248500D02*
X119539D01*
X118649Y248261D01*
X117851Y247801D01*
X117199Y247149D01*
X116989Y246784D01*
X43031D01*
X43031Y246784D01*
X42349Y246649D01*
X41770Y246262D01*
X38502Y242994D01*
X38115Y242415D01*
X37980Y241732D01*
Y237904D01*
X37610Y237691D01*
X36837Y236918D01*
X36291Y235972D01*
X36008Y234916D01*
Y233824D01*
X36291Y232768D01*
X36837Y231822D01*
X37610Y231050D01*
X38216Y230700D01*
Y225000D01*
X38352Y224317D01*
X38738Y223738D01*
X53896Y208581D01*
X53896Y208581D01*
X54475Y208194D01*
X55158Y208058D01*
X80609D01*
X81050Y207295D01*
X81822Y206522D01*
X82768Y205976D01*
X83824Y205693D01*
X84916D01*
X85972Y205976D01*
X86918Y206522D01*
X87691Y207295D01*
X88237Y208241D01*
X88520Y209296D01*
Y210389D01*
X88237Y211444D01*
X87691Y212390D01*
X86918Y213163D01*
X85972Y213709D01*
X84916Y213992D01*
X83824D01*
X82768Y213709D01*
X81822Y213163D01*
X81050Y212390D01*
X80609Y211627D01*
X55897D01*
X41784Y225739D01*
Y230518D01*
X42705Y231050D01*
X43478Y231822D01*
X44024Y232768D01*
X44307Y233824D01*
Y234916D01*
X44024Y235972D01*
X43478Y236918D01*
X42705Y237691D01*
X41759Y238237D01*
X41548Y238294D01*
Y240993D01*
X43771Y243216D01*
X116989D01*
X117199Y242851D01*
X117851Y242199D01*
X118649Y241739D01*
X119539Y241500D01*
X120461D01*
X121351Y241739D01*
X122149Y242199D01*
X122801Y242851D01*
X123261Y243649D01*
X123500Y244539D01*
Y245461D01*
X123261Y246351D01*
X122801Y247149D01*
X122149Y247801D01*
X121351Y248261D01*
X120461Y248500D01*
D02*
G37*
G36*
X231710Y256784D02*
X222700D01*
X222743Y256457D01*
X222799Y256321D01*
X222521Y255906D01*
X218937D01*
Y244501D01*
X211063D01*
Y255906D01*
X207339D01*
Y256784D01*
X198252D01*
Y255906D01*
X197283D01*
Y244094D01*
X198112D01*
X198390Y243679D01*
X198334Y243543D01*
X198225Y242717D01*
X198334Y241890D01*
X198652Y241120D01*
X199160Y240459D01*
X199821Y239952D01*
X200591Y239633D01*
X201417Y239524D01*
X204173D01*
X204999Y239633D01*
X205770Y239952D01*
X206431Y240459D01*
X206794Y240932D01*
X223206D01*
X223569Y240459D01*
X224231Y239952D01*
X225001Y239633D01*
X225216Y239604D01*
Y216500D01*
X225352Y215817D01*
X225738Y215238D01*
X247738Y193238D01*
X248317Y192851D01*
X249000Y192716D01*
X249000Y192716D01*
X263989D01*
X264199Y192351D01*
X264851Y191699D01*
X265649Y191238D01*
X266539Y191000D01*
X267461D01*
X268351Y191238D01*
X269149Y191699D01*
X269801Y192351D01*
X270262Y193149D01*
X270500Y194039D01*
Y194961D01*
X270262Y195851D01*
X269801Y196649D01*
X269149Y197301D01*
X268351Y197761D01*
X267461Y198000D01*
X266539D01*
X265649Y197761D01*
X264851Y197301D01*
X264199Y196649D01*
X263989Y196284D01*
X249739D01*
X228784Y217239D01*
Y239550D01*
X229409Y239633D01*
X230179Y239952D01*
X230840Y240459D01*
X231348Y241120D01*
X231667Y241890D01*
X231775Y242717D01*
X231667Y243543D01*
X231610Y243679D01*
X231888Y244094D01*
X232716D01*
Y255906D01*
X231888D01*
X231610Y256321D01*
X231667Y256457D01*
X231710Y256784D01*
D02*
G37*
G36*
X396709Y246783D02*
X387700D01*
X387743Y246457D01*
X387799Y246321D01*
X387521Y245905D01*
X383937D01*
Y234501D01*
X376063D01*
Y245905D01*
X372339D01*
Y246783D01*
X363252D01*
Y245905D01*
X362283D01*
Y234095D01*
X363112D01*
X363390Y233679D01*
X363334Y233543D01*
X363225Y232716D01*
X363334Y231890D01*
X363652Y231120D01*
X364160Y230459D01*
X364821Y229952D01*
X365591Y229633D01*
X365803Y229605D01*
Y217245D01*
X365438Y217035D01*
X364787Y216383D01*
X364326Y215585D01*
X364087Y214695D01*
Y213773D01*
X364326Y212883D01*
X364787Y212085D01*
X365438Y211433D01*
X366236Y210972D01*
X367126Y210734D01*
X368048D01*
X368938Y210972D01*
X369736Y211433D01*
X370388Y212085D01*
X370849Y212883D01*
X371087Y213773D01*
Y214695D01*
X370849Y215585D01*
X370388Y216383D01*
X369736Y217035D01*
X369371Y217245D01*
Y229550D01*
X370000Y229633D01*
X370770Y229952D01*
X371431Y230459D01*
X371794Y230932D01*
X388206D01*
X388569Y230459D01*
X389230Y229952D01*
X390001Y229633D01*
X390827Y229524D01*
X393583D01*
X394409Y229633D01*
X395179Y229952D01*
X395840Y230459D01*
X396348Y231120D01*
X396667Y231890D01*
X396775Y232716D01*
X396667Y233543D01*
X396610Y233679D01*
X396888Y234095D01*
X397716D01*
Y245905D01*
X396888D01*
X396610Y246321D01*
X396667Y246457D01*
X396709Y246783D01*
D02*
G37*
G36*
X298583Y235476D02*
X297705D01*
Y232784D01*
X301710D01*
X301667Y233110D01*
X301348Y233880D01*
X300840Y234541D01*
X300179Y235048D01*
X299409Y235367D01*
X298583Y235476D01*
D02*
G37*
G36*
X296705D02*
X295827D01*
X295001Y235367D01*
X294231Y235048D01*
X293569Y234541D01*
X293062Y233880D01*
X292743Y233110D01*
X292700Y232784D01*
X296705D01*
Y235476D01*
D02*
G37*
G36*
X277339Y235449D02*
X273295D01*
Y232784D01*
X277339D01*
Y235449D01*
D02*
G37*
G36*
X272295D02*
X268252D01*
Y232784D01*
X272295D01*
Y235449D01*
D02*
G37*
G36*
X158583Y235476D02*
X157705D01*
Y232784D01*
X161709D01*
X161667Y233110D01*
X161348Y233880D01*
X160840Y234541D01*
X160179Y235048D01*
X159409Y235367D01*
X158583Y235476D01*
D02*
G37*
G36*
X156705D02*
X155827D01*
X155000Y235367D01*
X154230Y235048D01*
X153569Y234541D01*
X153062Y233880D01*
X152743Y233110D01*
X152700Y232784D01*
X156705D01*
Y235476D01*
D02*
G37*
G36*
X137339Y235449D02*
X133295D01*
Y232784D01*
X137339D01*
Y235449D01*
D02*
G37*
G36*
X132295D02*
X128252D01*
Y232784D01*
X132295D01*
Y235449D01*
D02*
G37*
G36*
X333493Y248441D02*
X331861D01*
X330261Y248123D01*
X328753Y247498D01*
X327397Y246592D01*
X326243Y245438D01*
X325337Y244081D01*
X324712Y242574D01*
X324394Y240973D01*
Y239342D01*
X324712Y237741D01*
X325337Y236234D01*
X326243Y234877D01*
X327397Y233723D01*
X328753Y232817D01*
X330261Y232192D01*
X331861Y231874D01*
X333493D01*
X335093Y232192D01*
X336601Y232817D01*
X337958Y233723D01*
X339111Y234877D01*
X340018Y236234D01*
X340642Y237741D01*
X340961Y239342D01*
Y240973D01*
X340642Y242574D01*
X340018Y244081D01*
X339111Y245438D01*
X337958Y246592D01*
X336601Y247498D01*
X335093Y248123D01*
X333493Y248441D01*
D02*
G37*
G36*
X430905Y217717D02*
X419095D01*
Y216888D01*
X418679Y216610D01*
X418543Y216667D01*
X418217Y216709D01*
Y212205D01*
Y207700D01*
X418543Y207743D01*
X418679Y207799D01*
X419095Y207521D01*
Y203937D01*
X430499D01*
Y196063D01*
X419095D01*
Y192339D01*
X418217D01*
Y187795D01*
Y183252D01*
X419095D01*
Y182283D01*
X430216D01*
Y172511D01*
X429851Y172301D01*
X429199Y171649D01*
X428738Y170851D01*
X428500Y169961D01*
Y169039D01*
X428738Y168149D01*
X429199Y167351D01*
X429851Y166699D01*
X430649Y166238D01*
X431539Y166000D01*
X432461D01*
X433351Y166238D01*
X434149Y166699D01*
X434801Y167351D01*
X435261Y168149D01*
X435500Y169039D01*
Y169961D01*
X435261Y170851D01*
X434801Y171649D01*
X434149Y172301D01*
X433784Y172511D01*
Y183613D01*
X433880Y183652D01*
X434541Y184160D01*
X435048Y184821D01*
X435367Y185591D01*
X435476Y186417D01*
Y189173D01*
X435367Y189999D01*
X435048Y190770D01*
X434541Y191431D01*
X434068Y191794D01*
Y208206D01*
X434541Y208569D01*
X435048Y209230D01*
X435367Y210000D01*
X435476Y210827D01*
Y213583D01*
X435367Y214409D01*
X435048Y215179D01*
X434541Y215840D01*
X433880Y216348D01*
X433110Y216667D01*
X432283Y216775D01*
X431457Y216667D01*
X431321Y216610D01*
X430905Y216888D01*
Y217717D01*
D02*
G37*
G36*
X340905D02*
X329095D01*
Y216888D01*
X328679Y216610D01*
X328543Y216667D01*
X328217Y216709D01*
Y212205D01*
Y207700D01*
X328543Y207743D01*
X328679Y207799D01*
X329095Y207521D01*
Y203937D01*
X340499D01*
Y196063D01*
X329095D01*
Y192339D01*
X328217D01*
Y187795D01*
Y183252D01*
X329095D01*
Y182283D01*
X340499D01*
Y177386D01*
X340351Y177301D01*
X339699Y176649D01*
X339239Y175851D01*
X339000Y174961D01*
Y174039D01*
X339239Y173149D01*
X339699Y172351D01*
X340351Y171699D01*
X341149Y171239D01*
X342039Y171000D01*
X342961D01*
X343851Y171239D01*
X344649Y171699D01*
X345301Y172351D01*
X345761Y173149D01*
X346000Y174039D01*
Y174961D01*
X345761Y175851D01*
X345301Y176649D01*
X344649Y177301D01*
X344068Y177636D01*
Y183797D01*
X344541Y184160D01*
X345048Y184821D01*
X345367Y185591D01*
X345476Y186417D01*
Y189173D01*
X345367Y189999D01*
X345048Y190770D01*
X344541Y191431D01*
X344068Y191794D01*
Y208206D01*
X344541Y208569D01*
X345048Y209230D01*
X345367Y210000D01*
X345476Y210827D01*
Y213583D01*
X345367Y214409D01*
X345048Y215179D01*
X344541Y215840D01*
X343880Y216348D01*
X343110Y216667D01*
X342284Y216775D01*
X341457Y216667D01*
X341321Y216610D01*
X340905Y216888D01*
Y217717D01*
D02*
G37*
G36*
X200000Y273284D02*
X199317Y273148D01*
X198738Y272762D01*
X198738Y272762D01*
X176238Y250262D01*
X175852Y249683D01*
X175716Y249000D01*
Y238751D01*
X163179Y226214D01*
X162716Y226405D01*
Y230906D01*
X161888D01*
X161610Y231321D01*
X161667Y231457D01*
X161709Y231784D01*
X152700D01*
X152743Y231457D01*
X152799Y231321D01*
X152521Y230906D01*
X148937D01*
Y219501D01*
X141063D01*
Y230906D01*
X137339D01*
Y231784D01*
X128252D01*
Y230906D01*
X127284D01*
Y219094D01*
X128112D01*
X128390Y218679D01*
X128333Y218543D01*
X128225Y217717D01*
X128333Y216890D01*
X128652Y216120D01*
X129160Y215459D01*
X129821Y214952D01*
X130591Y214633D01*
X131417Y214524D01*
X134173D01*
X135000Y214633D01*
X135770Y214952D01*
X136431Y215459D01*
X136794Y215932D01*
X153206D01*
X153569Y215459D01*
X154230Y214952D01*
X155000Y214633D01*
X155827Y214524D01*
X158583D01*
X159409Y214633D01*
X160179Y214952D01*
X160840Y215459D01*
X161348Y216120D01*
X161667Y216890D01*
X161775Y217717D01*
X161667Y218543D01*
X161610Y218679D01*
X161888Y219094D01*
X162716D01*
Y220705D01*
X178762Y236750D01*
X178762Y236750D01*
X179148Y237329D01*
X179284Y238012D01*
X179284Y238012D01*
Y248261D01*
X200739Y269716D01*
X228261D01*
X235716Y262261D01*
Y230500D01*
X235852Y229817D01*
X236238Y229238D01*
X241738Y223738D01*
X241738Y223738D01*
X242317Y223352D01*
X243000Y223216D01*
X261278D01*
X261327Y223034D01*
X261788Y222236D01*
X262439Y221585D01*
X263237Y221124D01*
X264128Y220885D01*
X265049D01*
X265939Y221124D01*
X266737Y221585D01*
X266822Y221669D01*
X267284Y221477D01*
Y219094D01*
X268112D01*
X268390Y218679D01*
X268334Y218543D01*
X268225Y217717D01*
X268334Y216890D01*
X268652Y216120D01*
X269160Y215459D01*
X269821Y214952D01*
X270591Y214633D01*
X271011Y214577D01*
Y207893D01*
X270851Y207801D01*
X270199Y207149D01*
X269739Y206351D01*
X269500Y205461D01*
Y204539D01*
X269739Y203649D01*
X270199Y202851D01*
X270851Y202199D01*
X271649Y201739D01*
X272539Y201500D01*
X273461D01*
X274351Y201739D01*
X275149Y202199D01*
X275801Y202851D01*
X276261Y203649D01*
X276500Y204539D01*
Y205461D01*
X276261Y206351D01*
X275801Y207149D01*
X275149Y207801D01*
X274580Y208130D01*
Y214577D01*
X274999Y214633D01*
X275770Y214952D01*
X276431Y215459D01*
X276794Y215932D01*
X293206D01*
X293569Y215459D01*
X294231Y214952D01*
X295001Y214633D01*
X295827Y214524D01*
X298583D01*
X299409Y214633D01*
X300179Y214952D01*
X300840Y215459D01*
X301348Y216120D01*
X301667Y216890D01*
X301775Y217717D01*
X301667Y218543D01*
X301610Y218679D01*
X301888Y219094D01*
X302716D01*
Y230906D01*
X301888D01*
X301610Y231321D01*
X301667Y231457D01*
X301710Y231784D01*
X292700D01*
X292743Y231457D01*
X292799Y231321D01*
X292521Y230906D01*
X288937D01*
Y219501D01*
X281063D01*
Y230906D01*
X277339D01*
Y231784D01*
X268252D01*
Y230906D01*
X267284D01*
Y227293D01*
X266822Y227102D01*
X266737Y227186D01*
X265939Y227647D01*
X265049Y227885D01*
X264128D01*
X263237Y227647D01*
X262439Y227186D01*
X262038Y226784D01*
X243739D01*
X239284Y231239D01*
Y263000D01*
X239284Y263000D01*
X239148Y263683D01*
X238762Y264262D01*
X238762Y264262D01*
X230262Y272762D01*
X229683Y273148D01*
X229000Y273284D01*
X200000D01*
X200000Y273284D01*
D02*
G37*
G36*
X75603Y225016D02*
X74200D01*
X72844Y224653D01*
X71628Y223951D01*
X70636Y222958D01*
X69934Y221743D01*
X69571Y220387D01*
Y218983D01*
X69934Y217628D01*
X70636Y216412D01*
X71628Y215419D01*
X72844Y214718D01*
X74200Y214354D01*
X75603D01*
X76959Y214718D01*
X78175Y215419D01*
X79167Y216412D01*
X79869Y217628D01*
X80232Y218983D01*
Y220387D01*
X79869Y221743D01*
X79167Y222958D01*
X78175Y223951D01*
X76959Y224653D01*
X75603Y225016D01*
D02*
G37*
G36*
X25800D02*
X24397D01*
X23041Y224653D01*
X21825Y223951D01*
X20833Y222958D01*
X20131Y221743D01*
X19768Y220387D01*
Y218983D01*
X20131Y217628D01*
X20833Y216412D01*
X21825Y215419D01*
X23041Y214718D01*
X24397Y214354D01*
X25800D01*
X27156Y214718D01*
X28372Y215419D01*
X29364Y216412D01*
X30066Y217628D01*
X30429Y218983D01*
Y220387D01*
X30066Y221743D01*
X29364Y222958D01*
X28372Y223951D01*
X27156Y224653D01*
X25800Y225016D01*
D02*
G37*
G36*
X327217Y216709D02*
X326890Y216667D01*
X326120Y216348D01*
X325459Y215840D01*
X324952Y215179D01*
X324633Y214409D01*
X324524Y213583D01*
Y212705D01*
X327217D01*
Y216709D01*
D02*
G37*
G36*
X417216D02*
X416890Y216667D01*
X416120Y216348D01*
X415459Y215840D01*
X414952Y215179D01*
X414633Y214409D01*
X414524Y213583D01*
Y212705D01*
X417216D01*
Y216709D01*
D02*
G37*
G36*
X327217Y211705D02*
X324524D01*
Y210827D01*
X324633Y210000D01*
X324952Y209230D01*
X325459Y208569D01*
X326120Y208062D01*
X326890Y207743D01*
X327217Y207700D01*
Y211705D01*
D02*
G37*
G36*
X417216D02*
X414524D01*
Y210827D01*
X414633Y210000D01*
X414952Y209230D01*
X415459Y208569D01*
X416120Y208062D01*
X416890Y207743D01*
X417216Y207700D01*
Y211705D01*
D02*
G37*
G36*
X60389Y238520D02*
X59296D01*
X58241Y238237D01*
X57295Y237691D01*
X56522Y236918D01*
X55976Y235972D01*
X55693Y234916D01*
Y233824D01*
X55976Y232768D01*
X56522Y231822D01*
X57295Y231050D01*
X58241Y230503D01*
X59296Y230221D01*
X60389D01*
X61444Y230503D01*
X62390Y231050D01*
X63163Y231822D01*
X63604Y232586D01*
X89891D01*
X112738Y209738D01*
X112738Y209738D01*
X113317Y209351D01*
X114000Y209216D01*
X116989D01*
X117199Y208851D01*
X117851Y208199D01*
X118649Y207738D01*
X119539Y207500D01*
X120461D01*
X121351Y207738D01*
X122149Y208199D01*
X122801Y208851D01*
X123261Y209649D01*
X123500Y210539D01*
Y211461D01*
X123261Y212351D01*
X122801Y213149D01*
X122149Y213801D01*
X121351Y214262D01*
X120461Y214500D01*
X119539D01*
X118649Y214262D01*
X117851Y213801D01*
X117199Y213149D01*
X116989Y212784D01*
X114739D01*
X91892Y235632D01*
X91313Y236018D01*
X90630Y236154D01*
X63604D01*
X63163Y236918D01*
X62390Y237691D01*
X61444Y238237D01*
X60389Y238520D01*
D02*
G37*
G36*
X42500Y208489D02*
Y205500D01*
X45489D01*
X45261Y206351D01*
X44801Y207149D01*
X44149Y207801D01*
X43351Y208261D01*
X42500Y208489D01*
D02*
G37*
G36*
X41500D02*
X40649Y208261D01*
X39851Y207801D01*
X39199Y207149D01*
X38739Y206351D01*
X38511Y205500D01*
X41500D01*
Y208489D01*
D02*
G37*
G36*
X45489Y204500D02*
X42500D01*
Y201511D01*
X43351Y201739D01*
X44149Y202199D01*
X44801Y202851D01*
X45261Y203649D01*
X45489Y204500D01*
D02*
G37*
G36*
X41500D02*
X38511D01*
X38739Y203649D01*
X39199Y202851D01*
X39851Y202199D01*
X40649Y201739D01*
X41500Y201511D01*
Y204500D01*
D02*
G37*
G36*
X50546Y238520D02*
X49454D01*
X48398Y238237D01*
X47452Y237691D01*
X46679Y236918D01*
X46133Y235972D01*
X45850Y234916D01*
Y233824D01*
X46133Y232768D01*
X46679Y231822D01*
X47452Y231050D01*
X48216Y230609D01*
Y229000D01*
X48351Y228317D01*
X48738Y227738D01*
X53738Y222738D01*
X53738Y222738D01*
X54317Y222352D01*
X55000Y222216D01*
X55000Y222216D01*
X63000D01*
X63683Y222352D01*
X64262Y222738D01*
X68739Y227216D01*
X84261D01*
X108238Y203238D01*
X108238Y203238D01*
X108817Y202852D01*
X109500Y202716D01*
X127989D01*
X128199Y202351D01*
X128851Y201699D01*
X129649Y201238D01*
X130539Y201000D01*
X131461D01*
X132351Y201238D01*
X133149Y201699D01*
X133801Y202351D01*
X134262Y203149D01*
X134500Y204039D01*
Y204961D01*
X134262Y205851D01*
X133801Y206649D01*
X133149Y207301D01*
X132351Y207762D01*
X131461Y208000D01*
X130539D01*
X129649Y207762D01*
X128851Y207301D01*
X128199Y206649D01*
X127989Y206284D01*
X110239D01*
X86262Y230262D01*
X85683Y230648D01*
X85000Y230784D01*
X68000D01*
X68000Y230784D01*
X67317Y230648D01*
X66738Y230262D01*
X66738Y230262D01*
X62261Y225784D01*
X55739D01*
X51784Y229739D01*
Y230609D01*
X52548Y231050D01*
X53320Y231822D01*
X53867Y232768D01*
X54150Y233824D01*
Y234916D01*
X53867Y235972D01*
X53320Y236918D01*
X52548Y237691D01*
X51602Y238237D01*
X50546Y238520D01*
D02*
G37*
G36*
X382500Y199489D02*
Y196500D01*
X385490D01*
X385262Y197351D01*
X384801Y198149D01*
X384149Y198801D01*
X383351Y199261D01*
X382500Y199489D01*
D02*
G37*
G36*
X381500D02*
X380649Y199261D01*
X379851Y198801D01*
X379199Y198149D01*
X378738Y197351D01*
X378510Y196500D01*
X381500D01*
Y199489D01*
D02*
G37*
G36*
X385490Y195500D02*
X382500D01*
Y192510D01*
X383351Y192738D01*
X384149Y193199D01*
X384801Y193851D01*
X385262Y194649D01*
X385490Y195500D01*
D02*
G37*
G36*
X381500D02*
X378510D01*
X378738Y194649D01*
X379199Y193851D01*
X379851Y193199D01*
X380649Y192738D01*
X381500Y192510D01*
Y195500D01*
D02*
G37*
G36*
X84916Y204150D02*
X83824D01*
X82768Y203867D01*
X81822Y203321D01*
X81050Y202548D01*
X80503Y201602D01*
X80221Y200546D01*
Y199454D01*
X80503Y198398D01*
X81050Y197452D01*
X81822Y196679D01*
X82768Y196133D01*
X83824Y195850D01*
X84916D01*
X85972Y196133D01*
X86918Y196679D01*
X87691Y197452D01*
X87843Y197716D01*
X94261D01*
X98738Y193238D01*
X98738Y193238D01*
X99317Y192851D01*
X100000Y192716D01*
X100000Y192716D01*
X125489D01*
X125699Y192351D01*
X126351Y191699D01*
X127149Y191238D01*
X128039Y191000D01*
X128961D01*
X129851Y191238D01*
X130649Y191699D01*
X131301Y192351D01*
X131762Y193149D01*
X132000Y194039D01*
Y194961D01*
X131762Y195851D01*
X131301Y196649D01*
X130649Y197301D01*
X129851Y197761D01*
X128961Y198000D01*
X128039D01*
X127149Y197761D01*
X126351Y197301D01*
X125699Y196649D01*
X125489Y196284D01*
X100739D01*
X96262Y200762D01*
X95683Y201149D01*
X95000Y201284D01*
X88322D01*
X88237Y201602D01*
X87691Y202548D01*
X86918Y203321D01*
X85972Y203867D01*
X84916Y204150D01*
D02*
G37*
G36*
X417216Y192339D02*
X414551D01*
Y188295D01*
X417216D01*
Y192339D01*
D02*
G37*
G36*
X327217D02*
X324551D01*
Y188295D01*
X327217D01*
Y192339D01*
D02*
G37*
G36*
X84916Y194307D02*
X83824D01*
X82768Y194024D01*
X81822Y193478D01*
X81050Y192705D01*
X80503Y191759D01*
X80221Y190704D01*
Y189611D01*
X80503Y188556D01*
X81050Y187610D01*
X81822Y186837D01*
X82768Y186291D01*
X83824Y186008D01*
X84916D01*
X85972Y186291D01*
X86918Y186837D01*
X87691Y187610D01*
X88237Y188556D01*
X88520Y189611D01*
Y190704D01*
X88237Y191759D01*
X87691Y192705D01*
X86918Y193478D01*
X85972Y194024D01*
X84916Y194307D01*
D02*
G37*
G36*
X417216Y187295D02*
X414551D01*
Y183252D01*
X417216D01*
Y187295D01*
D02*
G37*
G36*
X327217D02*
X324551D01*
Y183252D01*
X327217D01*
Y187295D01*
D02*
G37*
G36*
X75603Y185646D02*
X74200D01*
X72844Y185282D01*
X71628Y184581D01*
X70636Y183588D01*
X69934Y182372D01*
X69571Y181017D01*
Y179613D01*
X69934Y178257D01*
X70636Y177042D01*
X71628Y176049D01*
X72844Y175347D01*
X74200Y174984D01*
X75603D01*
X76959Y175347D01*
X78175Y176049D01*
X79167Y177042D01*
X79869Y178257D01*
X80232Y179613D01*
Y181017D01*
X79869Y182372D01*
X79167Y183588D01*
X78175Y184581D01*
X76959Y185282D01*
X75603Y185646D01*
D02*
G37*
G36*
X25800D02*
X24397D01*
X23041Y185282D01*
X21825Y184581D01*
X20833Y183588D01*
X20131Y182372D01*
X19768Y181017D01*
Y179613D01*
X20131Y178257D01*
X20833Y177042D01*
X21825Y176049D01*
X23041Y175347D01*
X24397Y174984D01*
X25800D01*
X27156Y175347D01*
X28372Y176049D01*
X29364Y177042D01*
X30066Y178257D01*
X30429Y179613D01*
Y181017D01*
X30066Y182372D01*
X29364Y183588D01*
X28372Y184581D01*
X27156Y185282D01*
X25800Y185646D01*
D02*
G37*
G36*
X37803Y181905D02*
X36607D01*
X35451Y181596D01*
X34415Y180998D01*
X33569Y180152D01*
X32971Y179116D01*
X32661Y177960D01*
Y176764D01*
X32971Y175609D01*
X33569Y174573D01*
X34415Y173727D01*
X35451Y173128D01*
X36607Y172819D01*
X37803D01*
X38958Y173128D01*
X39994Y173727D01*
X40840Y174573D01*
X41438Y175609D01*
X41748Y176764D01*
Y177960D01*
X41438Y179116D01*
X40840Y180152D01*
X39994Y180998D01*
X38958Y181596D01*
X37803Y181905D01*
D02*
G37*
G36*
X63393D02*
X62197D01*
X61042Y181596D01*
X60006Y180998D01*
X59160Y180152D01*
X58562Y179116D01*
X58252Y177960D01*
Y176764D01*
X58562Y175609D01*
X59160Y174573D01*
X60006Y173727D01*
X61042Y173128D01*
X62197Y172819D01*
X63393D01*
X64515Y173119D01*
X71396Y166238D01*
X71396Y166238D01*
X71975Y165851D01*
X72658Y165716D01*
X72658Y165716D01*
X87500D01*
X88183Y165851D01*
X88762Y166238D01*
X94980Y172457D01*
X121695D01*
X121906Y172092D01*
X122558Y171440D01*
X123356Y170979D01*
X124246Y170741D01*
X125168D01*
X126058Y170979D01*
X126856Y171440D01*
X127507Y172092D01*
X127968Y172890D01*
X128207Y173780D01*
Y174702D01*
X127968Y175592D01*
X127507Y176390D01*
X126856Y177042D01*
X126058Y177503D01*
X125168Y177741D01*
X124246D01*
X123356Y177503D01*
X122558Y177042D01*
X121906Y176390D01*
X121695Y176025D01*
X94241D01*
X93558Y175890D01*
X92979Y175503D01*
X86761Y169284D01*
X73397D01*
X67038Y175643D01*
X67339Y176764D01*
Y177960D01*
X67029Y179116D01*
X66431Y180152D01*
X65585Y180998D01*
X64549Y181596D01*
X63393Y181905D01*
D02*
G37*
G36*
X393583Y165476D02*
X392705D01*
Y162784D01*
X396709D01*
X396667Y163110D01*
X396348Y163880D01*
X395840Y164541D01*
X395179Y165048D01*
X394409Y165367D01*
X393583Y165476D01*
D02*
G37*
G36*
X391705D02*
X390827D01*
X390001Y165367D01*
X389230Y165048D01*
X388569Y164541D01*
X388062Y163880D01*
X387743Y163110D01*
X387700Y162784D01*
X391705D01*
Y165476D01*
D02*
G37*
G36*
X372339Y165449D02*
X368295D01*
Y162784D01*
X372339D01*
Y165449D01*
D02*
G37*
G36*
X367295D02*
X363252D01*
Y162784D01*
X367295D01*
Y165449D01*
D02*
G37*
G36*
X37803Y164189D02*
X37705D01*
Y160146D01*
X41748D01*
Y160244D01*
X41438Y161399D01*
X40840Y162435D01*
X39994Y163281D01*
X38958Y163879D01*
X37803Y164189D01*
D02*
G37*
G36*
X36705D02*
X36607D01*
X35451Y163879D01*
X34415Y163281D01*
X33569Y162435D01*
X32971Y161399D01*
X32661Y160244D01*
Y160146D01*
X36705D01*
Y164189D01*
D02*
G37*
G36*
X63393D02*
X62197D01*
X61042Y163879D01*
X60006Y163281D01*
X59160Y162435D01*
X58562Y161399D01*
X58252Y160244D01*
Y159047D01*
X58562Y157892D01*
X59160Y156856D01*
X60006Y156010D01*
X61042Y155412D01*
X62197Y155102D01*
X63393D01*
X64549Y155412D01*
X65585Y156010D01*
X66431Y156856D01*
X67029Y157892D01*
X67339Y159047D01*
Y160244D01*
X67029Y161399D01*
X66431Y162435D01*
X65585Y163281D01*
X64549Y163879D01*
X63393Y164189D01*
D02*
G37*
G36*
X41748Y159146D02*
X37705D01*
Y155102D01*
X37803D01*
X38958Y155412D01*
X39994Y156010D01*
X40840Y156856D01*
X41438Y157892D01*
X41748Y159047D01*
Y159146D01*
D02*
G37*
G36*
X36705D02*
X32661D01*
Y159047D01*
X32971Y157892D01*
X33569Y156856D01*
X34415Y156010D01*
X35451Y155412D01*
X36607Y155102D01*
X36705D01*
Y159146D01*
D02*
G37*
G36*
X396709Y161784D02*
X387700D01*
X387743Y161457D01*
X387799Y161321D01*
X387521Y160906D01*
X383937D01*
Y149501D01*
X376063D01*
Y160906D01*
X372339D01*
Y161784D01*
X363252D01*
Y160906D01*
X362283D01*
Y149501D01*
X347386D01*
X347301Y149649D01*
X346649Y150301D01*
X345851Y150761D01*
X344961Y151000D01*
X344039D01*
X343149Y150761D01*
X342351Y150301D01*
X341699Y149649D01*
X341238Y148851D01*
X341000Y147961D01*
Y147039D01*
X341238Y146149D01*
X341699Y145351D01*
X342351Y144699D01*
X343149Y144238D01*
X344039Y144000D01*
X344961D01*
X345851Y144238D01*
X346649Y144699D01*
X347301Y145351D01*
X347636Y145932D01*
X363797D01*
X364160Y145459D01*
X364821Y144952D01*
X365591Y144633D01*
X366417Y144524D01*
X369173D01*
X370000Y144633D01*
X370770Y144952D01*
X371431Y145459D01*
X371794Y145932D01*
X388206D01*
X388569Y145459D01*
X389230Y144952D01*
X390001Y144633D01*
X390827Y144524D01*
X393583D01*
X394409Y144633D01*
X395179Y144952D01*
X395840Y145459D01*
X396348Y146120D01*
X396667Y146890D01*
X396775Y147716D01*
X396667Y148543D01*
X396610Y148679D01*
X396888Y149094D01*
X397716D01*
Y160906D01*
X396888D01*
X396610Y161321D01*
X396667Y161457D01*
X396709Y161784D01*
D02*
G37*
G36*
X313583Y150476D02*
X312705D01*
Y147784D01*
X316709D01*
X316667Y148110D01*
X316348Y148880D01*
X315840Y149541D01*
X315179Y150048D01*
X314409Y150367D01*
X313583Y150476D01*
D02*
G37*
G36*
X311705D02*
X310827D01*
X310000Y150367D01*
X309230Y150048D01*
X308569Y149541D01*
X308062Y148880D01*
X307743Y148110D01*
X307700Y147784D01*
X311705D01*
Y150476D01*
D02*
G37*
G36*
X292339Y150449D02*
X288295D01*
Y147784D01*
X292339D01*
Y150449D01*
D02*
G37*
G36*
X287295D02*
X283252D01*
Y147784D01*
X287295D01*
Y150449D01*
D02*
G37*
G36*
X143583Y150476D02*
X142705D01*
Y147784D01*
X146710D01*
X146667Y148110D01*
X146348Y148880D01*
X145840Y149541D01*
X145179Y150048D01*
X144409Y150367D01*
X143583Y150476D01*
D02*
G37*
G36*
X119173D02*
X118295D01*
Y147784D01*
X122300D01*
X122257Y148110D01*
X121938Y148880D01*
X121431Y149541D01*
X120770Y150048D01*
X120000Y150367D01*
X119173Y150476D01*
D02*
G37*
G36*
X141705D02*
X140827D01*
X140000Y150367D01*
X139230Y150048D01*
X138569Y149541D01*
X138062Y148880D01*
X137743Y148110D01*
X137700Y147784D01*
X141705D01*
Y150476D01*
D02*
G37*
G36*
X117295D02*
X116417D01*
X115591Y150367D01*
X114821Y150048D01*
X114160Y149541D01*
X113652Y148880D01*
X113333Y148110D01*
X113291Y147784D01*
X117295D01*
Y150476D01*
D02*
G37*
G36*
X92500Y149489D02*
Y146500D01*
X95490D01*
X95262Y147351D01*
X94801Y148149D01*
X94149Y148801D01*
X93351Y149261D01*
X92500Y149489D01*
D02*
G37*
G36*
X91500D02*
X90649Y149261D01*
X89851Y148801D01*
X89199Y148149D01*
X88739Y147351D01*
X88511Y146500D01*
X91500D01*
Y149489D01*
D02*
G37*
G36*
X95490Y145500D02*
X92500D01*
Y142510D01*
X93351Y142738D01*
X94149Y143199D01*
X94801Y143851D01*
X95262Y144649D01*
X95490Y145500D01*
D02*
G37*
G36*
X91500D02*
X88511D01*
X88739Y144649D01*
X89199Y143851D01*
X89851Y143199D01*
X90649Y142738D01*
X91500Y142510D01*
Y145500D01*
D02*
G37*
G36*
X316709Y146783D02*
X307700D01*
X307743Y146457D01*
X307799Y146321D01*
X307521Y145905D01*
X303937D01*
Y134501D01*
X296063D01*
Y145905D01*
X292339D01*
Y146783D01*
X283252D01*
Y145905D01*
X282283D01*
Y134501D01*
X278023D01*
X275391Y137132D01*
X275500Y137539D01*
Y138461D01*
X275261Y139351D01*
X274801Y140149D01*
X274149Y140801D01*
X273351Y141261D01*
X272461Y141500D01*
X271539D01*
X270649Y141261D01*
X269851Y140801D01*
X269199Y140149D01*
X268739Y139351D01*
X268500Y138461D01*
Y137539D01*
X268739Y136649D01*
X269199Y135851D01*
X269851Y135199D01*
X270649Y134739D01*
X271539Y134500D01*
X272461D01*
X272868Y134609D01*
X276022Y131455D01*
X276601Y131068D01*
X277284Y130932D01*
X283797D01*
X284160Y130459D01*
X284821Y129952D01*
X285591Y129633D01*
X286417Y129524D01*
X289173D01*
X290000Y129633D01*
X290770Y129952D01*
X291431Y130459D01*
X291794Y130932D01*
X308206D01*
X308569Y130459D01*
X309230Y129952D01*
X310000Y129633D01*
X310827Y129524D01*
X313583D01*
X314409Y129633D01*
X315179Y129952D01*
X315840Y130459D01*
X316348Y131120D01*
X316667Y131890D01*
X316775Y132717D01*
X316667Y133543D01*
X316610Y133679D01*
X316888Y134095D01*
X317717D01*
Y145905D01*
X316888D01*
X316610Y146321D01*
X316667Y146457D01*
X316709Y146783D01*
D02*
G37*
G36*
X142205Y147283D02*
D01*
Y146783D01*
X137700D01*
X137743Y146457D01*
X137799Y146321D01*
X137521Y145905D01*
X133937D01*
Y134501D01*
X126063D01*
Y145905D01*
X122479D01*
X122201Y146321D01*
X122257Y146457D01*
X122300Y146783D01*
X117795D01*
X113291D01*
X113333Y146457D01*
X113390Y146321D01*
X113112Y145905D01*
X112284D01*
Y134095D01*
X113112D01*
X113390Y133679D01*
X113333Y133543D01*
X113225Y132717D01*
X113333Y131890D01*
X113652Y131120D01*
X114160Y130459D01*
X114821Y129952D01*
X115591Y129633D01*
X116417Y129524D01*
X119173D01*
X120000Y129633D01*
X120770Y129952D01*
X121431Y130459D01*
X121794Y130932D01*
X137661D01*
Y129551D01*
X146748D01*
Y130916D01*
X148900D01*
X149583Y131052D01*
X150162Y131438D01*
X153394Y134670D01*
X153449Y134639D01*
X154339Y134400D01*
X155261D01*
X156151Y134639D01*
X156949Y135099D01*
X157601Y135751D01*
X158062Y136549D01*
X158300Y137439D01*
Y138361D01*
X158062Y139251D01*
X157601Y140049D01*
X156949Y140701D01*
X156151Y141162D01*
X155261Y141400D01*
X154339D01*
X153449Y141162D01*
X152651Y140701D01*
X151999Y140049D01*
X151539Y139251D01*
X151300Y138361D01*
Y137623D01*
X148216Y134540D01*
X147716Y134619D01*
Y145905D01*
X146888D01*
X146610Y146321D01*
X146667Y146457D01*
X146710Y146783D01*
X142205D01*
Y147283D01*
D02*
G37*
G36*
X415500Y136489D02*
Y133500D01*
X418490D01*
X418261Y134351D01*
X417801Y135149D01*
X417149Y135801D01*
X416351Y136261D01*
X415500Y136489D01*
D02*
G37*
G36*
X414500D02*
X413649Y136261D01*
X412851Y135801D01*
X412199Y135149D01*
X411738Y134351D01*
X411511Y133500D01*
X414500D01*
Y136489D01*
D02*
G37*
G36*
X418490Y132500D02*
X415500D01*
Y129510D01*
X416351Y129738D01*
X417149Y130199D01*
X417801Y130851D01*
X418261Y131649D01*
X418490Y132500D01*
D02*
G37*
G36*
X414500D02*
X411511D01*
X411738Y131649D01*
X412199Y130851D01*
X412851Y130199D01*
X413649Y129738D01*
X414500Y129510D01*
Y132500D01*
D02*
G37*
G36*
X340905Y122716D02*
X329095D01*
Y121888D01*
X328679Y121610D01*
X328543Y121667D01*
X328217Y121710D01*
Y117205D01*
Y112700D01*
X328543Y112743D01*
X328679Y112799D01*
X329095Y112521D01*
Y108937D01*
X340499D01*
Y101063D01*
X329095D01*
Y97339D01*
X328217D01*
Y92795D01*
Y88252D01*
X329095D01*
Y87283D01*
X340905D01*
Y88112D01*
X341321Y88390D01*
X341457Y88333D01*
X342284Y88225D01*
X343110Y88333D01*
X343880Y88652D01*
X344541Y89160D01*
X345048Y89821D01*
X345367Y90591D01*
X345384Y90716D01*
X353489D01*
X353699Y90351D01*
X354351Y89699D01*
X355149Y89239D01*
X356039Y89000D01*
X356961D01*
X357851Y89239D01*
X358649Y89699D01*
X359301Y90351D01*
X359762Y91149D01*
X360000Y92039D01*
Y92961D01*
X359762Y93851D01*
X359301Y94649D01*
X358649Y95301D01*
X357851Y95762D01*
X356961Y96000D01*
X356039D01*
X355149Y95762D01*
X354351Y95301D01*
X353699Y94649D01*
X353489Y94284D01*
X345462D01*
X345367Y94999D01*
X345048Y95770D01*
X344541Y96431D01*
X344068Y96794D01*
Y113206D01*
X344541Y113569D01*
X345048Y114230D01*
X345367Y115000D01*
X345476Y115827D01*
Y118583D01*
X345367Y119409D01*
X345048Y120179D01*
X344541Y120840D01*
X343880Y121348D01*
X343110Y121667D01*
X342284Y121775D01*
X341457Y121667D01*
X341321Y121610D01*
X340905Y121888D01*
Y122716D01*
D02*
G37*
G36*
X159549Y129939D02*
X158627D01*
X157737Y129701D01*
X156939Y129240D01*
X156287Y128589D01*
X155827Y127790D01*
X155588Y126900D01*
Y125979D01*
X155827Y125089D01*
X156287Y124291D01*
X156939Y123639D01*
X157737Y123178D01*
X158627Y122940D01*
X158687D01*
X159095Y122716D01*
Y121888D01*
X158679Y121610D01*
X158543Y121667D01*
X158217Y121710D01*
Y117205D01*
Y112700D01*
X158543Y112743D01*
X158679Y112799D01*
X159095Y112521D01*
Y108937D01*
X170499D01*
Y101063D01*
X159095D01*
Y97479D01*
X158679Y97201D01*
X158543Y97257D01*
X158217Y97300D01*
Y92795D01*
Y88291D01*
X158543Y88333D01*
X158679Y88390D01*
X159095Y88112D01*
Y87283D01*
X170905D01*
Y88112D01*
X171321Y88390D01*
X171457Y88333D01*
X172283Y88225D01*
X173110Y88333D01*
X173880Y88652D01*
X174541Y89160D01*
X175048Y89821D01*
X175367Y90591D01*
X175476Y91417D01*
Y94173D01*
X175367Y94999D01*
X175048Y95770D01*
X174541Y96431D01*
X174068Y96794D01*
Y112661D01*
X175449D01*
Y121748D01*
X174184D01*
Y123900D01*
X174048Y124583D01*
X173662Y125162D01*
X171122Y127701D01*
X170543Y128088D01*
X169860Y128224D01*
X162099D01*
X161889Y128589D01*
X161237Y129240D01*
X160439Y129701D01*
X159549Y129939D01*
D02*
G37*
G36*
X100906Y122716D02*
X89095D01*
Y121888D01*
X88679Y121610D01*
X88543Y121667D01*
X88217Y121710D01*
Y117205D01*
Y112700D01*
X88543Y112743D01*
X88679Y112799D01*
X89095Y112521D01*
Y108937D01*
X100499D01*
Y101063D01*
X89095D01*
Y97479D01*
X88679Y97201D01*
X88543Y97257D01*
X88217Y97300D01*
Y92795D01*
Y88291D01*
X88543Y88333D01*
X88679Y88390D01*
X89095Y88112D01*
Y87283D01*
X100906D01*
Y88112D01*
X101321Y88390D01*
X101457Y88333D01*
X102284Y88225D01*
X103110Y88333D01*
X103880Y88652D01*
X104541Y89160D01*
X105048Y89821D01*
X105367Y90591D01*
X105476Y91417D01*
Y94173D01*
X105367Y94999D01*
X105048Y95770D01*
X104541Y96431D01*
X104068Y96794D01*
Y112661D01*
X105449D01*
Y115816D01*
X110389D01*
X110599Y115451D01*
X111251Y114799D01*
X112049Y114339D01*
X112939Y114100D01*
X113861D01*
X114751Y114339D01*
X115549Y114799D01*
X116201Y115451D01*
X116662Y116249D01*
X116900Y117139D01*
Y118061D01*
X116662Y118951D01*
X116201Y119749D01*
X115549Y120401D01*
X114751Y120861D01*
X113861Y121100D01*
X112939D01*
X112049Y120861D01*
X111251Y120401D01*
X110599Y119749D01*
X110389Y119384D01*
X105449D01*
Y121748D01*
X100906D01*
Y122716D01*
D02*
G37*
G36*
X305500Y122490D02*
Y119500D01*
X308489D01*
X308261Y120351D01*
X307801Y121149D01*
X307149Y121801D01*
X306351Y122262D01*
X305500Y122490D01*
D02*
G37*
G36*
X304500D02*
X303649Y122262D01*
X302851Y121801D01*
X302199Y121149D01*
X301739Y120351D01*
X301511Y119500D01*
X304500D01*
Y122490D01*
D02*
G37*
G36*
X327217Y121710D02*
X326890Y121667D01*
X326120Y121348D01*
X325459Y120840D01*
X324952Y120179D01*
X324633Y119409D01*
X324524Y118583D01*
Y117705D01*
X327217D01*
Y121710D01*
D02*
G37*
G36*
X275449Y121748D02*
X272783D01*
Y117705D01*
X275449D01*
Y121748D01*
D02*
G37*
G36*
X157217Y121710D02*
X156890Y121667D01*
X156120Y121348D01*
X155459Y120840D01*
X154952Y120179D01*
X154633Y119409D01*
X154524Y118583D01*
Y117705D01*
X157217D01*
Y121710D01*
D02*
G37*
G36*
X87217D02*
X86890Y121667D01*
X86120Y121348D01*
X85459Y120840D01*
X84952Y120179D01*
X84633Y119409D01*
X84524Y118583D01*
Y117705D01*
X87217D01*
Y121710D01*
D02*
G37*
G36*
X279500Y126284D02*
X265012D01*
X264329Y126148D01*
X263750Y125762D01*
X263750Y125762D01*
X260705Y122716D01*
X259095D01*
Y121888D01*
X258679Y121610D01*
X258543Y121667D01*
X257716Y121775D01*
X256890Y121667D01*
X256120Y121348D01*
X255459Y120840D01*
X254952Y120179D01*
X254633Y119409D01*
X254524Y118583D01*
Y115827D01*
X254633Y115000D01*
X254952Y114230D01*
X255459Y113569D01*
X255932Y113206D01*
Y96794D01*
X255459Y96431D01*
X254952Y95770D01*
X254633Y94999D01*
X254524Y94173D01*
Y91417D01*
X254633Y90591D01*
X254952Y89821D01*
X255459Y89160D01*
X256120Y88652D01*
X256890Y88333D01*
X257716Y88225D01*
X258543Y88333D01*
X258679Y88390D01*
X259095Y88112D01*
Y87283D01*
X270905D01*
Y88112D01*
X271321Y88390D01*
X271457Y88333D01*
X271783Y88291D01*
Y92795D01*
Y97300D01*
X271457Y97257D01*
X271321Y97201D01*
X270905Y97479D01*
Y101063D01*
X259501D01*
Y108937D01*
X270905D01*
Y112661D01*
X271783D01*
Y117205D01*
Y121748D01*
X270905D01*
Y122716D01*
X278761D01*
X280109Y121368D01*
X280000Y120961D01*
Y120039D01*
X280239Y119149D01*
X280699Y118351D01*
X281351Y117699D01*
X282149Y117238D01*
X283039Y117000D01*
X283961D01*
X284851Y117238D01*
X285649Y117699D01*
X286301Y118351D01*
X286761Y119149D01*
X287000Y120039D01*
Y120961D01*
X286761Y121851D01*
X286301Y122649D01*
X285649Y123301D01*
X284851Y123761D01*
X283961Y124000D01*
X283039D01*
X282632Y123891D01*
X280762Y125762D01*
X280183Y126148D01*
X279500Y126284D01*
D02*
G37*
G36*
X308489Y118500D02*
X305500D01*
Y115510D01*
X306351Y115738D01*
X307149Y116199D01*
X307801Y116851D01*
X308261Y117649D01*
X308489Y118500D01*
D02*
G37*
G36*
X304500D02*
X301511D01*
X301739Y117649D01*
X302199Y116851D01*
X302851Y116199D01*
X303649Y115738D01*
X304500Y115510D01*
Y118500D01*
D02*
G37*
G36*
X327217Y116705D02*
X324524D01*
Y115827D01*
X324633Y115000D01*
X324952Y114230D01*
X325459Y113569D01*
X326120Y113062D01*
X326890Y112743D01*
X327217Y112700D01*
Y116705D01*
D02*
G37*
G36*
X157217Y116705D02*
X154524D01*
Y115827D01*
X154633Y115000D01*
X154952Y114230D01*
X155459Y113569D01*
X156120Y113062D01*
X156890Y112743D01*
X157217Y112700D01*
Y116705D01*
D02*
G37*
G36*
X87217D02*
X84524D01*
Y115827D01*
X84633Y115000D01*
X84952Y114230D01*
X85459Y113569D01*
X86120Y113062D01*
X86890Y112743D01*
X87217Y112700D01*
Y116705D01*
D02*
G37*
G36*
X275449Y116705D02*
X272783D01*
Y112661D01*
X275449D01*
Y116705D01*
D02*
G37*
G36*
X50028Y126394D02*
X48397D01*
X46796Y126075D01*
X45289Y125451D01*
X43932Y124544D01*
X42778Y123391D01*
X41872Y122034D01*
X41247Y120526D01*
X40929Y118926D01*
Y117294D01*
X41247Y115694D01*
X41872Y114187D01*
X42778Y112830D01*
X43932Y111676D01*
X45289Y110769D01*
X46796Y110145D01*
X48397Y109827D01*
X50028D01*
X51629Y110145D01*
X53136Y110769D01*
X54493Y111676D01*
X55647Y112830D01*
X56553Y114187D01*
X57178Y115694D01*
X57496Y117294D01*
Y118926D01*
X57178Y120526D01*
X56553Y122034D01*
X55647Y123391D01*
X54493Y124544D01*
X53136Y125451D01*
X51629Y126075D01*
X50028Y126394D01*
D02*
G37*
G36*
X384674Y116551D02*
X383042D01*
X381442Y116233D01*
X379935Y115608D01*
X378578Y114702D01*
X377424Y113548D01*
X376518Y112191D01*
X375893Y110684D01*
X375575Y109084D01*
Y107452D01*
X375893Y105851D01*
X376518Y104344D01*
X377424Y102987D01*
X378578Y101833D01*
X379935Y100927D01*
X381442Y100303D01*
X383042Y99984D01*
X384674D01*
X386275Y100303D01*
X387782Y100927D01*
X389139Y101833D01*
X390293Y102987D01*
X391199Y104344D01*
X391823Y105851D01*
X392142Y107452D01*
Y109084D01*
X391823Y110684D01*
X391199Y112191D01*
X390293Y113548D01*
X389139Y114702D01*
X387782Y115608D01*
X386275Y116233D01*
X384674Y116551D01*
D02*
G37*
G36*
X327217Y97339D02*
X324551D01*
Y93295D01*
X327217D01*
Y97339D01*
D02*
G37*
G36*
X272783Y97300D02*
Y93295D01*
X275476D01*
Y94173D01*
X275367Y94999D01*
X275048Y95770D01*
X274541Y96431D01*
X273880Y96938D01*
X273110Y97257D01*
X272783Y97300D01*
D02*
G37*
G36*
X157217D02*
X156890Y97257D01*
X156120Y96938D01*
X155459Y96431D01*
X154952Y95770D01*
X154633Y94999D01*
X154524Y94173D01*
Y93295D01*
X157217D01*
Y97300D01*
D02*
G37*
G36*
X87217D02*
X86890Y97257D01*
X86120Y96938D01*
X85459Y96431D01*
X84952Y95770D01*
X84633Y94999D01*
X84524Y94173D01*
Y93295D01*
X87217D01*
Y97300D01*
D02*
G37*
G36*
X275476Y92295D02*
X272783D01*
Y88291D01*
X273110Y88333D01*
X273880Y88652D01*
X274541Y89160D01*
X275048Y89821D01*
X275367Y90591D01*
X275476Y91417D01*
Y92295D01*
D02*
G37*
G36*
X157217Y92295D02*
X154524D01*
Y91417D01*
X154633Y90591D01*
X154952Y89821D01*
X155459Y89160D01*
X156120Y88652D01*
X156890Y88333D01*
X157217Y88291D01*
Y92295D01*
D02*
G37*
G36*
X87217D02*
X84524D01*
Y91417D01*
X84633Y90591D01*
X84952Y89821D01*
X85459Y89160D01*
X86120Y88652D01*
X86890Y88333D01*
X87217Y88291D01*
Y92295D01*
D02*
G37*
G36*
X327217Y92295D02*
X324551D01*
Y88252D01*
X327217D01*
Y92295D01*
D02*
G37*
G36*
X313583Y80476D02*
X312705D01*
Y77784D01*
X316709D01*
X316667Y78110D01*
X316348Y78880D01*
X315840Y79541D01*
X315179Y80048D01*
X314409Y80367D01*
X313583Y80476D01*
D02*
G37*
G36*
X311705D02*
X310827D01*
X310000Y80367D01*
X309230Y80048D01*
X308569Y79541D01*
X308062Y78880D01*
X307743Y78110D01*
X307700Y77784D01*
X311705D01*
Y80476D01*
D02*
G37*
G36*
X292339Y80449D02*
X288295D01*
Y77784D01*
X292339D01*
Y80449D01*
D02*
G37*
G36*
X287295D02*
X283252D01*
Y77784D01*
X287295D01*
Y80449D01*
D02*
G37*
G36*
X119173Y80476D02*
X118295D01*
Y77784D01*
X122300D01*
X122257Y78110D01*
X121938Y78880D01*
X121431Y79541D01*
X120770Y80048D01*
X120000Y80367D01*
X119173Y80476D01*
D02*
G37*
G36*
X143583D02*
X142705D01*
Y77784D01*
X146710D01*
X146667Y78110D01*
X146348Y78880D01*
X145840Y79541D01*
X145179Y80048D01*
X144409Y80367D01*
X143583Y80476D01*
D02*
G37*
G36*
X117295D02*
X116417D01*
X115591Y80367D01*
X114821Y80048D01*
X114160Y79541D01*
X113652Y78880D01*
X113333Y78110D01*
X113291Y77784D01*
X117295D01*
Y80476D01*
D02*
G37*
G36*
X141705D02*
X140827D01*
X140000Y80367D01*
X139230Y80048D01*
X138569Y79541D01*
X138062Y78880D01*
X137743Y78110D01*
X137700Y77784D01*
X141705D01*
Y80476D01*
D02*
G37*
G36*
X240500Y78490D02*
Y75500D01*
X243490D01*
X243262Y76351D01*
X242801Y77149D01*
X242149Y77801D01*
X241351Y78262D01*
X240500Y78490D01*
D02*
G37*
G36*
X239500D02*
X238649Y78262D01*
X237851Y77801D01*
X237199Y77149D01*
X236738Y76351D01*
X236510Y75500D01*
X239500D01*
Y78490D01*
D02*
G37*
G36*
X338500Y76490D02*
Y73500D01*
X341490D01*
X341262Y74351D01*
X340801Y75149D01*
X340149Y75801D01*
X339351Y76262D01*
X338500Y76490D01*
D02*
G37*
G36*
X337500D02*
X336649Y76262D01*
X335851Y75801D01*
X335199Y75149D01*
X334738Y74351D01*
X334510Y73500D01*
X337500D01*
Y76490D01*
D02*
G37*
G36*
X243490Y74500D02*
X240500D01*
Y71510D01*
X241351Y71738D01*
X242149Y72199D01*
X242801Y72851D01*
X243262Y73649D01*
X243490Y74500D01*
D02*
G37*
G36*
X239500D02*
X236510D01*
X236738Y73649D01*
X237199Y72851D01*
X237851Y72199D01*
X238649Y71738D01*
X239500Y71510D01*
Y74500D01*
D02*
G37*
G36*
X341490Y72500D02*
X338500D01*
Y69511D01*
X339351Y69739D01*
X340149Y70199D01*
X340801Y70851D01*
X341262Y71649D01*
X341490Y72500D01*
D02*
G37*
G36*
X337500D02*
X334510D01*
X334738Y71649D01*
X335199Y70851D01*
X335851Y70199D01*
X336649Y69739D01*
X337500Y69511D01*
Y72500D01*
D02*
G37*
G36*
X316709Y76784D02*
X307700D01*
X307743Y76457D01*
X307799Y76321D01*
X307521Y75906D01*
X303937D01*
Y64284D01*
X296063D01*
Y75906D01*
X292339D01*
Y76784D01*
X283252D01*
Y75906D01*
X282283D01*
Y64284D01*
X263511D01*
X263301Y64649D01*
X262649Y65301D01*
X261851Y65762D01*
X260961Y66000D01*
X260039D01*
X259149Y65762D01*
X258351Y65301D01*
X257699Y64649D01*
X257239Y63851D01*
X257000Y62961D01*
Y62039D01*
X257239Y61149D01*
X257699Y60351D01*
X258351Y59699D01*
X259149Y59238D01*
X260039Y59000D01*
X260961D01*
X261851Y59238D01*
X262649Y59699D01*
X263301Y60351D01*
X263511Y60716D01*
X283963D01*
X284160Y60459D01*
X284821Y59952D01*
X285591Y59633D01*
X286417Y59524D01*
X289173D01*
X290000Y59633D01*
X290770Y59952D01*
X291431Y60459D01*
X291628Y60716D01*
X308372D01*
X308569Y60459D01*
X309230Y59952D01*
X310000Y59633D01*
X310827Y59524D01*
X313583D01*
X314409Y59633D01*
X315179Y59952D01*
X315840Y60459D01*
X316348Y61120D01*
X316667Y61890D01*
X316775Y62717D01*
X316667Y63543D01*
X316610Y63679D01*
X316888Y64095D01*
X317717D01*
Y75906D01*
X316888D01*
X316610Y76321D01*
X316667Y76457D01*
X316709Y76784D01*
D02*
G37*
G36*
X122300Y76784D02*
X117795D01*
X113291D01*
X113333Y76457D01*
X113390Y76321D01*
X113112Y75906D01*
X112284D01*
Y64095D01*
X113112D01*
X113390Y63679D01*
X113333Y63543D01*
X113225Y62717D01*
X113333Y61890D01*
X113652Y61120D01*
X114160Y60459D01*
X114821Y59952D01*
X115591Y59633D01*
X116417Y59524D01*
X119173D01*
X120000Y59633D01*
X120770Y59952D01*
X121431Y60459D01*
X121794Y60932D01*
X137661D01*
Y59551D01*
X146748D01*
Y60916D01*
X167089D01*
X167299Y60551D01*
X167951Y59899D01*
X168749Y59439D01*
X169639Y59200D01*
X170561D01*
X171451Y59439D01*
X172249Y59899D01*
X172901Y60551D01*
X173362Y61349D01*
X173600Y62239D01*
Y63161D01*
X173362Y64051D01*
X172901Y64849D01*
X172249Y65501D01*
X171451Y65961D01*
X170561Y66200D01*
X169639D01*
X168749Y65961D01*
X167951Y65501D01*
X167299Y64849D01*
X167089Y64484D01*
X147716D01*
Y75906D01*
X146888D01*
X146610Y76321D01*
X146667Y76457D01*
X146710Y76784D01*
X142205D01*
X137700D01*
X137743Y76457D01*
X137799Y76321D01*
X137521Y75906D01*
X133937D01*
Y64501D01*
X126063D01*
Y75906D01*
X122479D01*
X122201Y76321D01*
X122257Y76457D01*
X122300Y76784D01*
D02*
G37*
%LPD*%
D12*
X142205Y62717D02*
X142221Y62700D01*
D24*
X327716Y187795D02*
D03*
Y92795D02*
D03*
X272284Y117205D02*
D03*
X172283D02*
D03*
X102284D02*
D03*
X417717Y187795D02*
D03*
D25*
X342284D02*
D03*
X327716Y212205D02*
D03*
X342284D02*
D03*
Y92795D02*
D03*
X327716Y117205D02*
D03*
X342284D02*
D03*
X257716Y117205D02*
D03*
X272284Y92795D02*
D03*
X257716D02*
D03*
X157717Y117205D02*
D03*
X172283Y92795D02*
D03*
X157717D02*
D03*
X87717Y117205D02*
D03*
X102284Y92795D02*
D03*
X87717D02*
D03*
X432283Y187795D02*
D03*
X417717Y212205D02*
D03*
X432283D02*
D03*
D26*
X367795Y247284D02*
D03*
X312795Y277284D02*
D03*
X287795Y147283D02*
D03*
Y77284D02*
D03*
X142205Y132717D02*
D03*
Y62717D02*
D03*
X132795Y232283D02*
D03*
X367795Y162284D02*
D03*
X272795Y232283D02*
D03*
X202795Y257283D02*
D03*
D27*
X367795Y232716D02*
D03*
X392205Y247284D02*
D03*
Y232716D02*
D03*
X312795Y262717D02*
D03*
X337205Y277284D02*
D03*
Y262717D02*
D03*
X287795Y132717D02*
D03*
X312205Y147283D02*
D03*
Y132717D02*
D03*
X287795Y62717D02*
D03*
X312205Y77284D02*
D03*
Y62717D02*
D03*
X142205Y147283D02*
D03*
X117795Y132717D02*
D03*
Y147283D02*
D03*
X142205Y77284D02*
D03*
X117795Y62717D02*
D03*
Y77284D02*
D03*
X132795Y217717D02*
D03*
X157205Y232283D02*
D03*
Y217717D02*
D03*
X367795Y147716D02*
D03*
X392205Y162284D02*
D03*
Y147716D02*
D03*
X272795Y217717D02*
D03*
X297205Y232283D02*
D03*
Y217717D02*
D03*
X202795Y242717D02*
D03*
X227205Y257283D02*
D03*
Y242717D02*
D03*
D28*
X62795Y177362D02*
X72658Y167500D01*
X87500D01*
X94241Y174241D01*
X124707D01*
X114000Y211000D02*
X120000D01*
X90630Y234370D02*
X114000Y211000D01*
X59842Y234370D02*
X90630D01*
X40000Y234213D02*
X40157Y234370D01*
X40000Y225000D02*
Y234213D01*
Y225000D02*
X55158Y209842D01*
X84370D01*
X39764Y234764D02*
X40157Y234370D01*
X39764Y234764D02*
Y241732D01*
X43031Y245000D01*
X120000D01*
X202795Y242717D02*
X227205D01*
X263974Y225000D02*
X264588Y224385D01*
X243000Y225000D02*
X263974D01*
X237500Y230500D02*
X243000Y225000D01*
X237500Y230500D02*
Y263000D01*
X229000Y271500D02*
X237500Y263000D01*
X200000Y271500D02*
X229000D01*
X177500Y249000D02*
X200000Y271500D01*
X177500Y238012D02*
Y249000D01*
X157205Y217717D02*
X177500Y238012D01*
X132795Y217717D02*
X157205D01*
X172283Y92795D02*
Y117205D01*
X117795Y132717D02*
X142205D01*
X102284Y92795D02*
Y117205D01*
X117795Y62717D02*
X142205D01*
X260500Y62500D02*
X311988D01*
X312205Y62717D01*
X257716Y92795D02*
Y117205D01*
X342284Y92795D02*
Y117205D01*
X287795Y132717D02*
X312205D01*
X367795Y147716D02*
X392205D01*
X432000Y187512D02*
X432283Y187795D01*
Y212205D01*
X367795Y232716D02*
X392205D01*
X342284Y187795D02*
Y212205D01*
X272795Y217717D02*
X297205D01*
X312795Y277284D02*
X337205D01*
X312512Y277000D02*
X312795Y277284D01*
X296000Y277000D02*
X312512D01*
X272795Y205205D02*
Y217717D01*
Y205205D02*
X273000Y205000D01*
X227000Y242512D02*
X227205Y242717D01*
X227000Y216500D02*
Y242512D01*
Y216500D02*
X249000Y194500D01*
X267000D01*
X367587Y232508D02*
X367795Y232716D01*
X367587Y214234D02*
Y232508D01*
X342284Y174716D02*
Y187795D01*
Y174716D02*
X342500Y174500D01*
X432000Y169500D02*
Y187512D01*
X344717Y147716D02*
X367795D01*
X344500Y147500D02*
X344717Y147716D01*
X277284Y132717D02*
X287795D01*
X272000Y138000D02*
X277284Y132717D01*
X257716Y117205D02*
X265012Y124500D01*
X279500D01*
X283500Y120500D01*
X342284Y92795D02*
X342579Y92500D01*
X356500D01*
X109500Y204500D02*
X131000D01*
X85000Y229000D02*
X109500Y204500D01*
X68000Y229000D02*
X85000D01*
X55000Y224000D02*
X63000D01*
X50000Y229000D02*
X55000Y224000D01*
X50000Y229000D02*
Y234370D01*
X63000Y224000D02*
X68000Y229000D01*
X84370Y200000D02*
X84870Y199500D01*
X95000D01*
X100000Y194500D01*
X128500D01*
X142205Y132717D02*
X142221Y132700D01*
X148900D01*
X154100Y137900D01*
X154800D01*
X102284Y117205D02*
X102679Y117600D01*
X113400D01*
X159088Y126439D02*
X169860D01*
X172283Y117205D02*
X172400Y117321D01*
Y123900D01*
X169860Y126439D02*
X172400Y123900D01*
X142221Y62700D02*
X170100D01*
D29*
X332677Y240158D02*
D03*
X127953Y265748D02*
D03*
X383858Y108268D02*
D03*
X49213Y118110D02*
D03*
D30*
X371142Y280000D02*
D03*
X388858D02*
D03*
X41142D02*
D03*
X58858D02*
D03*
D31*
X393799Y270197D02*
D03*
X366201D02*
D03*
X63799D02*
D03*
X36201D02*
D03*
D32*
X25098Y219685D02*
D03*
X74902D02*
D03*
Y180315D02*
D03*
X25098D02*
D03*
D33*
X62795Y159646D02*
D03*
X37205D02*
D03*
X62795Y177362D02*
D03*
X37205D02*
D03*
D34*
X84370Y190157D02*
D03*
Y200000D02*
D03*
Y209842D02*
D03*
X59842Y234370D02*
D03*
X50000D02*
D03*
X40157D02*
D03*
D35*
X124707Y174241D02*
D03*
X305000Y119000D02*
D03*
X338000Y73000D02*
D03*
X240000Y75000D02*
D03*
X92000Y146000D02*
D03*
X154000Y271000D02*
D03*
X42000Y205000D02*
D03*
X382000Y196000D02*
D03*
X415000Y133000D02*
D03*
X120000Y211000D02*
D03*
Y245000D02*
D03*
X264588Y224385D02*
D03*
X296000Y277000D02*
D03*
X273000Y205000D02*
D03*
X267000Y194500D02*
D03*
X367587Y214234D02*
D03*
X342500Y174500D02*
D03*
X432000Y169500D02*
D03*
X344500Y147500D02*
D03*
X272000Y138000D02*
D03*
X283500Y120500D02*
D03*
X356500Y92500D02*
D03*
X260500Y62500D02*
D03*
X131000Y204500D02*
D03*
X128500Y194500D02*
D03*
X154800Y137900D02*
D03*
X113400Y117600D02*
D03*
X159088Y126439D02*
D03*
X170100Y62700D02*
D03*
M02*
